<svg width="233" height="61" viewBox="0 0 233 61" fill="none" xmlns="http://www.w3.org/2000/svg">
<path d="M0.636364 47V0.454544H16.3636C20.0152 0.454544 23 1.11363 25.3182 2.43182C27.6515 3.73485 29.3788 5.5 30.5 7.72727C31.6212 9.95454 32.1818 12.4394 32.1818 15.1818C32.1818 17.9242 31.6212 20.4167 30.5 22.6591C29.3939 24.9015 27.6818 26.6894 25.3636 28.0227C23.0455 29.3409 20.0758 30 16.4545 30H5.18182V25H16.2727C18.7727 25 20.7803 24.5682 22.2955 23.7045C23.8106 22.8409 24.9091 21.6742 25.5909 20.2045C26.2879 18.7197 26.6364 17.0455 26.6364 15.1818C26.6364 13.3182 26.2879 11.6515 25.5909 10.1818C24.9091 8.71212 23.803 7.56061 22.2727 6.72727C20.7424 5.87879 18.7121 5.45454 16.1818 5.45454H6.27273V47H0.636364ZM54.3409 47.7273C51.1894 47.7273 48.4242 46.9773 46.0455 45.4773C43.6818 43.9773 41.8333 41.8788 40.5 39.1818C39.1818 36.4848 38.5227 33.3333 38.5227 29.7273C38.5227 26.0909 39.1818 22.9167 40.5 20.2045C41.8333 17.4924 43.6818 15.3864 46.0455 13.8864C48.4242 12.3864 51.1894 11.6364 54.3409 11.6364C57.4924 11.6364 60.25 12.3864 62.6136 13.8864C64.9924 15.3864 66.8409 17.4924 68.1591 20.2045C69.4924 22.9167 70.1591 26.0909 70.1591 29.7273C70.1591 33.3333 69.4924 36.4848 68.1591 39.1818C66.8409 41.8788 64.9924 43.9773 62.6136 45.4773C60.25 46.9773 57.4924 47.7273 54.3409 47.7273ZM54.3409 42.9091C56.7348 42.9091 58.7045 42.2955 60.25 41.0682C61.7955 39.8409 62.9394 38.2273 63.6818 36.2273C64.4242 34.2273 64.7955 32.0606 64.7955 29.7273C64.7955 27.3939 64.4242 25.2197 63.6818 23.2045C62.9394 21.1894 61.7955 19.5606 60.25 18.3182C58.7045 17.0758 56.7348 16.4545 54.3409 16.4545C51.947 16.4545 49.9773 17.0758 48.4318 18.3182C46.8864 19.5606 45.7424 21.1894 45 23.2045C44.2576 25.2197 43.8864 27.3939 43.8864 29.7273C43.8864 32.0606 44.2576 34.2273 45 36.2273C45.7424 38.2273 46.8864 39.8409 48.4318 41.0682C49.9773 42.2955 51.947 42.9091 54.3409 42.9091ZM78.3466 60.0909V12.0909H83.5284V17.6364H84.1648C84.5587 17.0303 85.1042 16.2576 85.8011 15.3182C86.5133 14.3636 87.5284 13.5152 88.8466 12.7727C90.1799 12.0152 91.983 11.6364 94.2557 11.6364C97.1951 11.6364 99.786 12.3712 102.028 13.8409C104.271 15.3106 106.021 17.3939 107.278 20.0909C108.536 22.7879 109.165 25.9697 109.165 29.6364C109.165 33.3333 108.536 36.5379 107.278 39.25C106.021 41.947 104.278 44.0379 102.051 45.5227C99.8239 46.9924 97.2557 47.7273 94.3466 47.7273C92.1042 47.7273 90.3087 47.3561 88.9602 46.6136C87.6117 45.8561 86.5739 45 85.8466 44.0455C85.1193 43.0758 84.5587 42.2727 84.1648 41.6364H83.7102V60.0909H78.3466ZM83.6193 29.5455C83.6193 32.1818 84.0057 34.5076 84.7784 36.5227C85.5511 38.5227 86.6799 40.0909 88.1648 41.2273C89.6496 42.3485 91.4678 42.9091 93.6193 42.9091C95.8617 42.9091 97.733 42.3182 99.233 41.1364C100.748 39.9394 101.884 38.3333 102.642 36.3182C103.415 34.2879 103.801 32.0303 103.801 29.5455C103.801 27.0909 103.422 24.8788 102.665 22.9091C101.922 20.9242 100.794 19.3561 99.2784 18.2045C97.7784 17.0379 95.892 16.4545 93.6193 16.4545C91.4375 16.4545 89.6042 17.0076 88.1193 18.1136C86.6345 19.2045 85.5133 20.7348 84.7557 22.7045C83.9981 24.6591 83.6193 26.9394 83.6193 29.5455ZM139.347 32.7273V12.0909H144.71V47H139.347V41.0909H138.983C138.165 42.8636 136.892 44.3712 135.165 45.6136C133.438 46.8409 131.256 47.4545 128.619 47.4545C126.438 47.4545 124.498 46.9773 122.801 46.0227C121.104 45.053 119.771 43.5985 118.801 41.6591C117.831 39.7045 117.347 37.2424 117.347 34.2727V12.0909H122.71V33.9091C122.71 36.4545 123.422 38.4848 124.847 40C126.286 41.5152 128.119 42.2727 130.347 42.2727C131.68 42.2727 133.036 41.9318 134.415 41.25C135.809 40.5682 136.975 39.5227 137.915 38.1136C138.869 36.7045 139.347 34.9091 139.347 32.7273ZM159.898 0.454544V47H154.534V0.454544H159.898ZM184.358 47.7273C180.994 47.7273 178.093 46.9848 175.653 45.5C173.229 44 171.358 41.9091 170.04 39.2273C168.737 36.5303 168.085 33.3939 168.085 29.8182C168.085 26.2424 168.737 23.0909 170.04 20.3636C171.358 17.6212 173.191 15.4848 175.54 13.9545C177.903 12.4091 180.661 11.6364 183.812 11.6364C185.631 11.6364 187.426 11.9394 189.199 12.5455C190.972 13.1515 192.585 14.1364 194.04 15.5C195.494 16.8485 196.653 18.6364 197.517 20.8636C198.381 23.0909 198.812 25.8333 198.812 29.0909V31.3636H171.903V26.7273H193.358C193.358 24.7576 192.964 23 192.176 21.4545C191.403 19.9091 190.297 18.6894 188.858 17.7955C187.434 16.9015 185.752 16.4545 183.812 16.4545C181.676 16.4545 179.828 16.9848 178.267 18.0455C176.722 19.0909 175.532 20.4545 174.699 22.1364C173.866 23.8182 173.449 25.6212 173.449 27.5455V30.6364C173.449 33.2727 173.903 35.5076 174.812 37.3409C175.737 39.1591 177.017 40.5455 178.653 41.5C180.29 42.4394 182.191 42.9091 184.358 42.9091C185.767 42.9091 187.04 42.7121 188.176 42.3182C189.328 41.9091 190.32 41.303 191.153 40.5C191.987 39.6818 192.631 38.6667 193.085 37.4545L198.267 38.9091C197.722 40.6667 196.805 42.2121 195.517 43.5455C194.229 44.8636 192.638 45.8939 190.744 46.6364C188.85 47.3636 186.722 47.7273 184.358 47.7273ZM210.034 12.0909L218.398 26.3636L226.761 12.0909H232.943L221.67 29.5455L232.943 47H226.761L218.398 33.4545L210.034 47H203.852L214.943 29.5455L203.852 12.0909H210.034Z" fill="url(#paint0_linear_9_10)"/>
<defs>
<linearGradient id="paint0_linear_9_10" x1="-5" y1="23.5" x2="236" y2="23.5" gradientUnits="userSpaceOnUse">
<stop stop-color="#FF0000"/>
<stop offset="1" stop-color="#00FF09"/>
</linearGradient>
</defs>
</svg>
