<svg width="727" height="200" viewBox="0 0 727 200" fill="none" xmlns="http://www.w3.org/2000/svg">
<rect width="727" height="200" fill="#1E1E1E"/>
<circle cx="100" cy="100" r="100" fill="#231698"/>
<line x1="12.243" y1="144.844" x2="73.243" y2="66.8439" stroke="#26FF00" stroke-width="7"/>
<line x1="79.0373" y1="67.2607" x2="146.037" y2="184.261" stroke="#FF0101" stroke-width="7"/>
<line x1="139.519" y1="182.631" x2="157.519" y2="12.6315" stroke="#00F271" stroke-width="7"/>
<path d="M310.812 108.062H287.125V95.625H310.812C314.938 95.625 318.271 94.9583 320.812 93.625C323.354 92.2917 325.208 90.4583 326.375 88.125C327.583 85.75 328.188 83.0417 328.188 80C328.188 77.125 327.583 74.4375 326.375 71.9375C325.208 69.3958 323.354 67.3542 320.812 65.8125C318.271 64.2708 314.938 63.5 310.812 63.5H291.938V142H276.25V51H310.812C317.854 51 323.833 52.25 328.75 54.75C333.708 57.2083 337.479 60.625 340.062 65C342.646 69.3333 343.938 74.2917 343.938 79.875C343.938 85.75 342.646 90.7917 340.062 95C337.479 99.2083 333.708 102.438 328.75 104.688C323.833 106.938 317.854 108.062 310.812 108.062ZM352.5 108.938V107.5C352.5 102.625 353.208 98.1042 354.625 93.9375C356.042 89.7292 358.083 86.0833 360.75 83C363.458 79.875 366.75 77.4583 370.625 75.75C374.542 74 378.958 73.125 383.875 73.125C388.833 73.125 393.25 74 397.125 75.75C401.042 77.4583 404.354 79.875 407.062 83C409.771 86.0833 411.833 89.7292 413.25 93.9375C414.667 98.1042 415.375 102.625 415.375 107.5V108.938C415.375 113.812 414.667 118.333 413.25 122.5C411.833 126.667 409.771 130.312 407.062 133.438C404.354 136.521 401.062 138.938 397.188 140.688C393.312 142.396 388.917 143.25 384 143.25C379.042 143.25 374.604 142.396 370.688 140.688C366.812 138.938 363.521 136.521 360.812 133.438C358.104 130.312 356.042 126.667 354.625 122.5C353.208 118.333 352.5 113.812 352.5 108.938ZM367.562 107.5V108.938C367.562 111.979 367.875 114.854 368.5 117.562C369.125 120.271 370.104 122.646 371.438 124.688C372.771 126.729 374.479 128.333 376.562 129.5C378.646 130.667 381.125 131.25 384 131.25C386.792 131.25 389.208 130.667 391.25 129.5C393.333 128.333 395.042 126.729 396.375 124.688C397.708 122.646 398.688 120.271 399.312 117.562C399.979 114.854 400.312 111.979 400.312 108.938V107.5C400.312 104.5 399.979 101.667 399.312 99C398.688 96.2917 397.688 93.8958 396.312 91.8125C394.979 89.7292 393.271 88.1042 391.188 86.9375C389.146 85.7292 386.708 85.125 383.875 85.125C381.042 85.125 378.583 85.7292 376.5 86.9375C374.458 88.1042 372.771 89.7292 371.438 91.8125C370.104 93.8958 369.125 96.2917 368.5 99C367.875 101.667 367.562 104.5 367.562 107.5ZM442.875 87.375V168H427.812V74.375H441.688L442.875 87.375ZM486.938 107.562V108.875C486.938 113.792 486.354 118.354 485.188 122.562C484.062 126.729 482.375 130.375 480.125 133.5C477.917 136.583 475.188 138.979 471.938 140.688C468.688 142.396 464.938 143.25 460.688 143.25C456.479 143.25 452.792 142.479 449.625 140.938C446.5 139.354 443.854 137.125 441.688 134.25C439.521 131.375 437.771 128 436.438 124.125C435.146 120.208 434.229 115.917 433.688 111.25V106.188C434.229 101.229 435.146 96.7292 436.438 92.6875C437.771 88.6458 439.521 85.1667 441.688 82.25C443.854 79.3333 446.5 77.0833 449.625 75.5C452.75 73.9167 456.396 73.125 460.562 73.125C464.812 73.125 468.583 73.9583 471.875 75.625C475.167 77.25 477.938 79.5833 480.188 82.625C482.438 85.625 484.125 89.25 485.25 93.5C486.375 97.7083 486.938 102.396 486.938 107.562ZM471.875 108.875V107.562C471.875 104.438 471.583 101.542 471 98.875C470.417 96.1667 469.5 93.7917 468.25 91.75C467 89.7083 465.396 88.125 463.438 87C461.521 85.8333 459.208 85.25 456.5 85.25C453.833 85.25 451.542 85.7083 449.625 86.625C447.708 87.5 446.104 88.7292 444.812 90.3125C443.521 91.8958 442.521 93.75 441.812 95.875C441.104 97.9583 440.604 100.229 440.312 102.688V114.812C440.812 117.812 441.667 120.562 442.875 123.062C444.083 125.562 445.792 127.562 448 129.062C450.25 130.521 453.125 131.25 456.625 131.25C459.333 131.25 461.646 130.667 463.562 129.5C465.479 128.333 467.042 126.729 468.25 124.688C469.5 122.604 470.417 120.208 471 117.5C471.583 114.792 471.875 111.917 471.875 108.875ZM540.188 126.062V74.375H555.312V142H541.062L540.188 126.062ZM542.312 112L547.375 111.875C547.375 116.417 546.875 120.604 545.875 124.438C544.875 128.229 543.333 131.542 541.25 134.375C539.167 137.167 536.5 139.354 533.25 140.938C530 142.479 526.104 143.25 521.562 143.25C518.271 143.25 515.25 142.771 512.5 141.812C509.75 140.854 507.375 139.375 505.375 137.375C503.417 135.375 501.896 132.771 500.812 129.562C499.729 126.354 499.188 122.521 499.188 118.062V74.375H514.25V118.188C514.25 120.646 514.542 122.708 515.125 124.375C515.708 126 516.5 127.312 517.5 128.312C518.5 129.312 519.667 130.021 521 130.438C522.333 130.854 523.75 131.062 525.25 131.062C529.542 131.062 532.917 130.229 535.375 128.562C537.875 126.854 539.646 124.562 540.688 121.688C541.771 118.812 542.312 115.583 542.312 112ZM586.625 46V142H571.5V46H586.625ZM632.688 143.25C627.688 143.25 623.167 142.438 619.125 140.812C615.125 139.146 611.708 136.833 608.875 133.875C606.083 130.917 603.938 127.438 602.438 123.438C600.938 119.438 600.188 115.125 600.188 110.5V108C600.188 102.708 600.958 97.9167 602.5 93.625C604.042 89.3333 606.188 85.6667 608.938 82.625C611.688 79.5417 614.938 77.1875 618.688 75.5625C622.438 73.9375 626.5 73.125 630.875 73.125C635.708 73.125 639.938 73.9375 643.562 75.5625C647.188 77.1875 650.188 79.4792 652.562 82.4375C654.979 85.3542 656.771 88.8333 657.938 92.875C659.146 96.9167 659.75 101.375 659.75 106.25V112.688H607.5V101.875H644.875V100.688C644.792 97.9792 644.25 95.4375 643.25 93.0625C642.292 90.6875 640.812 88.7708 638.812 87.3125C636.812 85.8542 634.146 85.125 630.812 85.125C628.312 85.125 626.083 85.6667 624.125 86.75C622.208 87.7917 620.604 89.3125 619.312 91.3125C618.021 93.3125 617.021 95.7292 616.312 98.5625C615.646 101.354 615.312 104.5 615.312 108V110.5C615.312 113.458 615.708 116.208 616.5 118.75C617.333 121.25 618.542 123.438 620.125 125.312C621.708 127.188 623.625 128.667 625.875 129.75C628.125 130.792 630.688 131.312 633.562 131.312C637.188 131.312 640.417 130.583 643.25 129.125C646.083 127.667 648.542 125.604 650.625 122.938L658.562 130.625C657.104 132.75 655.208 134.792 652.875 136.75C650.542 138.667 647.688 140.229 644.312 141.438C640.979 142.646 637.104 143.25 632.688 143.25ZM682.75 74.375L695.625 96.8125L708.75 74.375H725.312L704.812 107.562L726.125 142H709.562L695.812 118.625L682.062 142H665.438L686.688 107.562L666.25 74.375H682.75Z" fill="url(#paint0_linear_0_1)"/>
<defs>
<linearGradient id="paint0_linear_0_1" x1="267" y1="98" x2="728" y2="98" gradientUnits="userSpaceOnUse">
<stop stop-color="#2AFB00"/>
<stop offset="1" stop-color="#FF0000"/>
</linearGradient>
</defs>
</svg>
