<svg width="2275" height="2365" viewBox="0 0 2275 2365" fill="none" xmlns="http://www.w3.org/2000/svg">
<rect width="2275" height="2365" fill="#1E1E1E"/>
<rect x="836.104" y="1120" width="1438" height="1245" fill="#D9D9D9"/>
<rect x="1002.1" y="1275" width="521" height="119" fill="white"/>
<path d="M1026.33 1318.09H1031.38L1043.24 1347.07H1043.65L1055.51 1318.09H1060.56V1353H1056.6V1326.48H1056.26L1045.35 1353H1041.54L1030.63 1326.48H1030.29V1353H1026.33V1318.09ZM1084.99 1342.3V1326.82H1089.01V1353H1084.99V1348.57H1084.72C1084.1 1349.9 1083.15 1351.03 1081.85 1351.96C1080.56 1352.88 1078.92 1353.34 1076.94 1353.34C1075.31 1353.34 1073.85 1352.98 1072.58 1352.27C1071.31 1351.54 1070.31 1350.45 1069.58 1348.99C1068.85 1347.53 1068.49 1345.68 1068.49 1343.45V1326.82H1072.51V1343.18C1072.51 1345.09 1073.05 1346.61 1074.11 1347.75C1075.19 1348.89 1076.57 1349.45 1078.24 1349.45C1079.24 1349.45 1080.26 1349.2 1081.29 1348.69C1082.34 1348.18 1083.21 1347.39 1083.92 1346.34C1084.63 1345.28 1084.99 1343.93 1084.99 1342.3ZM1100.4 1318.09V1353H1096.38V1318.09H1100.4ZM1119.16 1326.82V1330.23H1105.59V1326.82H1119.16ZM1109.54 1320.55H1113.57V1345.5C1113.57 1346.64 1113.73 1347.49 1114.06 1348.06C1114.4 1348.61 1114.83 1348.99 1115.36 1349.18C1115.89 1349.36 1116.45 1349.45 1117.04 1349.45C1117.49 1349.45 1117.85 1349.43 1118.13 1349.39C1118.42 1349.33 1118.65 1349.28 1118.82 1349.25L1119.63 1352.86C1119.36 1352.97 1118.98 1353.07 1118.49 1353.17C1118 1353.28 1117.38 1353.34 1116.63 1353.34C1115.5 1353.34 1114.38 1353.1 1113.29 1352.61C1112.21 1352.12 1111.32 1351.38 1110.6 1350.38C1109.9 1349.38 1109.54 1348.11 1109.54 1346.59V1320.55ZM1125.21 1353V1326.82H1129.23V1353H1125.21ZM1127.25 1322.45C1126.47 1322.45 1125.79 1322.19 1125.23 1321.65C1124.67 1321.12 1124.39 1320.48 1124.39 1319.73C1124.39 1318.98 1124.67 1318.34 1125.23 1317.8C1125.79 1317.27 1126.47 1317 1127.25 1317C1128.04 1317 1128.71 1317.27 1129.27 1317.8C1129.83 1318.34 1130.12 1318.98 1130.12 1319.73C1130.12 1320.48 1129.83 1321.12 1129.27 1321.65C1128.71 1322.19 1128.04 1322.45 1127.25 1322.45ZM1136.6 1362.82V1326.82H1140.49V1330.98H1140.96C1141.26 1330.52 1141.67 1329.94 1142.19 1329.24C1142.72 1328.52 1143.49 1327.89 1144.47 1327.33C1145.47 1326.76 1146.83 1326.48 1148.53 1326.48C1150.74 1326.48 1152.68 1327.03 1154.36 1328.13C1156.04 1329.23 1157.35 1330.8 1158.3 1332.82C1159.24 1334.84 1159.71 1337.23 1159.71 1339.98C1159.71 1342.75 1159.24 1345.15 1158.3 1347.19C1157.35 1349.21 1156.05 1350.78 1154.38 1351.89C1152.71 1352.99 1150.78 1353.55 1148.6 1353.55C1146.92 1353.55 1145.57 1353.27 1144.56 1352.71C1143.55 1352.14 1142.77 1351.5 1142.22 1350.78C1141.68 1350.06 1141.26 1349.45 1140.96 1348.98H1140.62V1362.82H1136.6ZM1140.55 1339.91C1140.55 1341.89 1140.84 1343.63 1141.42 1345.14C1142 1346.64 1142.85 1347.82 1143.96 1348.67C1145.08 1349.51 1146.44 1349.93 1148.05 1349.93C1149.74 1349.93 1151.14 1349.49 1152.26 1348.6C1153.4 1347.7 1154.25 1346.5 1154.82 1344.99C1155.4 1343.47 1155.69 1341.77 1155.69 1339.91C1155.69 1338.07 1155.41 1336.41 1154.84 1334.93C1154.28 1333.44 1153.43 1332.27 1152.3 1331.4C1151.17 1330.53 1149.76 1330.09 1148.05 1330.09C1146.42 1330.09 1145.04 1330.51 1143.93 1331.34C1142.81 1332.15 1141.97 1333.3 1141.41 1334.78C1140.84 1336.24 1140.55 1337.95 1140.55 1339.91ZM1169.87 1318.09V1353H1165.85V1318.09H1169.87ZM1179.83 1362.82C1179.15 1362.82 1178.54 1362.76 1178.01 1362.65C1177.47 1362.55 1177.1 1362.44 1176.9 1362.34L1177.92 1358.8C1178.9 1359.05 1179.76 1359.14 1180.51 1359.07C1181.26 1359 1181.93 1358.66 1182.51 1358.06C1183.1 1357.47 1183.64 1356.51 1184.13 1355.18L1184.88 1353.14L1175.19 1326.82H1179.56L1186.78 1347.68H1187.06L1194.28 1326.82H1198.65L1187.53 1356.82C1187.03 1358.17 1186.42 1359.29 1185.68 1360.18C1184.94 1361.07 1184.08 1361.74 1183.1 1362.17C1182.14 1362.6 1181.05 1362.82 1179.83 1362.82ZM1036.76 1420.55C1034.24 1420.55 1032.06 1419.99 1030.24 1418.88C1028.42 1417.75 1027.01 1416.18 1026.02 1414.17C1025.05 1412.15 1024.56 1409.8 1024.56 1407.11C1024.56 1404.43 1025.05 1402.07 1026.02 1400.02C1027.01 1397.97 1028.39 1396.36 1030.15 1395.22C1031.92 1394.06 1033.99 1393.48 1036.35 1393.48C1037.72 1393.48 1039.06 1393.7 1040.39 1394.16C1041.72 1394.61 1042.93 1395.35 1044.02 1396.38C1045.12 1397.39 1045.99 1398.73 1046.63 1400.4C1047.28 1402.07 1047.6 1404.12 1047.6 1406.57V1408.27H1027.42V1404.8H1043.51C1043.51 1403.32 1043.22 1402 1042.63 1400.84C1042.05 1399.68 1041.22 1398.77 1040.14 1398.1C1039.07 1397.43 1037.81 1397.09 1036.35 1397.09C1034.75 1397.09 1033.37 1397.49 1032.2 1398.28C1031.04 1399.07 1030.14 1400.09 1029.52 1401.35C1028.89 1402.61 1028.58 1403.97 1028.58 1405.41V1407.73C1028.58 1409.7 1028.92 1411.38 1029.6 1412.76C1030.3 1414.12 1031.26 1415.16 1032.49 1415.88C1033.71 1416.58 1035.14 1416.93 1036.76 1416.93C1037.82 1416.93 1038.77 1416.78 1039.63 1416.49C1040.49 1416.18 1041.24 1415.73 1041.86 1415.12C1042.49 1414.51 1042.97 1413.75 1043.31 1412.84L1047.2 1413.93C1046.79 1415.25 1046.1 1416.41 1045.13 1417.41C1044.17 1418.4 1042.97 1419.17 1041.55 1419.73C1040.13 1420.27 1038.54 1420.55 1036.76 1420.55ZM1074.34 1393.82L1064.65 1420H1060.56L1050.88 1393.82H1055.25L1062.47 1414.68H1062.75L1069.97 1393.82H1074.34ZM1089.69 1420.55C1087.16 1420.55 1084.99 1419.99 1083.16 1418.88C1081.34 1417.75 1079.94 1416.18 1078.95 1414.17C1077.97 1412.15 1077.48 1409.8 1077.48 1407.11C1077.48 1404.43 1077.97 1402.07 1078.95 1400.02C1079.94 1397.97 1081.31 1396.36 1083.07 1395.22C1084.84 1394.06 1086.91 1393.48 1089.28 1393.48C1090.64 1393.48 1091.99 1393.7 1093.32 1394.16C1094.65 1394.61 1095.86 1395.35 1096.95 1396.38C1098.04 1397.39 1098.91 1398.73 1099.55 1400.4C1100.2 1402.07 1100.53 1404.12 1100.53 1406.57V1408.27H1080.34V1404.8H1096.44C1096.44 1403.32 1096.14 1402 1095.55 1400.84C1094.97 1399.68 1094.14 1398.77 1093.06 1398.1C1091.99 1397.43 1090.73 1397.09 1089.28 1397.09C1087.67 1397.09 1086.29 1397.49 1085.12 1398.28C1083.96 1399.07 1083.07 1400.09 1082.44 1401.35C1081.82 1402.61 1081.5 1403.97 1081.5 1405.41V1407.73C1081.5 1409.7 1081.84 1411.38 1082.53 1412.76C1083.22 1414.12 1084.18 1415.16 1085.41 1415.88C1086.63 1416.58 1088.06 1416.93 1089.69 1416.93C1090.74 1416.93 1091.7 1416.78 1092.55 1416.49C1093.41 1416.18 1094.16 1415.73 1094.78 1415.12C1095.41 1414.51 1095.89 1413.75 1096.23 1412.84L1100.12 1413.93C1099.71 1415.25 1099.02 1416.41 1098.05 1417.41C1097.09 1418.4 1095.9 1419.17 1094.48 1419.73C1093.05 1420.27 1091.46 1420.55 1089.69 1420.55ZM1106.65 1420V1393.82H1110.53V1397.77H1110.8C1111.28 1396.48 1112.15 1395.43 1113.4 1394.62C1114.65 1393.81 1116.05 1393.41 1117.62 1393.41C1117.92 1393.41 1118.29 1393.41 1118.73 1393.43C1119.17 1393.44 1119.51 1393.45 1119.74 1393.48V1397.57C1119.6 1397.53 1119.29 1397.48 1118.8 1397.41C1118.32 1397.34 1117.82 1397.3 1117.28 1397.3C1116.01 1397.3 1114.87 1397.56 1113.87 1398.1C1112.88 1398.62 1112.1 1399.35 1111.52 1400.28C1110.95 1401.2 1110.67 1402.25 1110.67 1403.43V1420H1106.65ZM1127.89 1429.82C1127.21 1429.82 1126.6 1429.76 1126.07 1429.65C1125.53 1429.55 1125.17 1429.44 1124.96 1429.34L1125.98 1425.8C1126.96 1426.05 1127.82 1426.14 1128.57 1426.07C1129.32 1426 1129.99 1425.66 1130.57 1425.06C1131.16 1424.47 1131.7 1423.51 1132.19 1422.18L1132.94 1420.14L1123.26 1393.82H1127.62L1134.85 1414.68H1135.12L1142.35 1393.82H1146.71L1135.6 1423.82C1135.1 1425.17 1134.48 1426.29 1133.74 1427.18C1133 1428.07 1132.14 1428.74 1131.17 1429.17C1130.2 1429.6 1129.11 1429.82 1127.89 1429.82Z" fill="#080000"/>
<rect x="997.104" y="1498" width="522" height="118" fill="white"/>
<path d="M1024.33 1541.09H1029.38L1041.24 1570.07H1041.65L1053.51 1541.09H1058.56V1576H1054.6V1549.48H1054.26L1043.35 1576H1039.54L1028.63 1549.48H1028.29V1576H1024.33V1541.09ZM1082.99 1565.3V1549.82H1087.01V1576H1082.99V1571.57H1082.72C1082.1 1572.9 1081.15 1574.03 1079.85 1574.96C1078.56 1575.88 1076.92 1576.34 1074.94 1576.34C1073.31 1576.34 1071.85 1575.98 1070.58 1575.27C1069.31 1574.54 1068.31 1573.45 1067.58 1571.99C1066.85 1570.53 1066.49 1568.68 1066.49 1566.45V1549.82H1070.51V1566.18C1070.51 1568.09 1071.05 1569.61 1072.11 1570.75C1073.19 1571.89 1074.57 1572.45 1076.24 1572.45C1077.24 1572.45 1078.26 1572.2 1079.29 1571.69C1080.34 1571.18 1081.21 1570.39 1081.92 1569.34C1082.63 1568.28 1082.99 1566.93 1082.99 1565.3ZM1098.4 1541.09V1576H1094.38V1541.09H1098.4ZM1117.16 1549.82V1553.23H1103.59V1549.82H1117.16ZM1107.54 1543.55H1111.57V1568.5C1111.57 1569.64 1111.73 1570.49 1112.06 1571.06C1112.4 1571.61 1112.83 1571.99 1113.36 1572.18C1113.89 1572.36 1114.45 1572.45 1115.04 1572.45C1115.49 1572.45 1115.85 1572.43 1116.13 1572.39C1116.42 1572.33 1116.65 1572.28 1116.82 1572.25L1117.63 1575.86C1117.36 1575.97 1116.98 1576.07 1116.49 1576.17C1116 1576.28 1115.38 1576.34 1114.63 1576.34C1113.5 1576.34 1112.38 1576.1 1111.29 1575.61C1110.21 1575.12 1109.32 1574.38 1108.6 1573.38C1107.9 1572.38 1107.54 1571.11 1107.54 1569.59V1543.55ZM1123.21 1576V1549.82H1127.23V1576H1123.21ZM1125.25 1545.45C1124.47 1545.45 1123.79 1545.19 1123.23 1544.65C1122.67 1544.12 1122.39 1543.48 1122.39 1542.73C1122.39 1541.98 1122.67 1541.34 1123.23 1540.8C1123.79 1540.27 1124.47 1540 1125.25 1540C1126.04 1540 1126.71 1540.27 1127.27 1540.8C1127.83 1541.34 1128.12 1541.98 1128.12 1542.73C1128.12 1543.48 1127.83 1544.12 1127.27 1544.65C1126.71 1545.19 1126.04 1545.45 1125.25 1545.45ZM1134.6 1585.82V1549.82H1138.49V1553.98H1138.96C1139.26 1553.52 1139.67 1552.94 1140.19 1552.24C1140.72 1551.52 1141.49 1550.89 1142.47 1550.33C1143.47 1549.76 1144.83 1549.48 1146.53 1549.48C1148.74 1549.48 1150.68 1550.03 1152.36 1551.13C1154.04 1552.23 1155.35 1553.8 1156.3 1555.82C1157.24 1557.84 1157.71 1560.23 1157.71 1562.98C1157.71 1565.75 1157.24 1568.15 1156.3 1570.19C1155.35 1572.21 1154.05 1573.78 1152.38 1574.89C1150.71 1575.99 1148.78 1576.55 1146.6 1576.55C1144.92 1576.55 1143.57 1576.27 1142.56 1575.71C1141.55 1575.14 1140.77 1574.5 1140.22 1573.78C1139.68 1573.06 1139.26 1572.45 1138.96 1571.98H1138.62V1585.82H1134.6ZM1138.55 1562.91C1138.55 1564.89 1138.84 1566.63 1139.42 1568.14C1140 1569.64 1140.85 1570.82 1141.96 1571.67C1143.08 1572.51 1144.44 1572.93 1146.05 1572.93C1147.74 1572.93 1149.14 1572.49 1150.26 1571.6C1151.4 1570.7 1152.25 1569.5 1152.82 1567.99C1153.4 1566.47 1153.69 1564.77 1153.69 1562.91C1153.69 1561.07 1153.41 1559.41 1152.84 1557.93C1152.28 1556.44 1151.43 1555.27 1150.3 1554.4C1149.17 1553.53 1147.76 1553.09 1146.05 1553.09C1144.42 1553.09 1143.04 1553.51 1141.93 1554.34C1140.81 1555.15 1139.97 1556.3 1139.41 1557.78C1138.84 1559.24 1138.55 1560.95 1138.55 1562.91ZM1167.87 1541.09V1576H1163.85V1541.09H1167.87ZM1177.83 1585.82C1177.15 1585.82 1176.54 1585.76 1176.01 1585.65C1175.47 1585.55 1175.1 1585.44 1174.9 1585.34L1175.92 1581.8C1176.9 1582.05 1177.76 1582.14 1178.51 1582.07C1179.26 1582 1179.93 1581.66 1180.51 1581.06C1181.1 1580.47 1181.64 1579.51 1182.13 1578.18L1182.88 1576.14L1173.19 1549.82H1177.56L1184.78 1570.68H1185.06L1192.28 1549.82H1196.65L1185.53 1579.82C1185.03 1581.17 1184.42 1582.29 1183.68 1583.18C1182.94 1584.07 1182.08 1584.74 1181.1 1585.17C1180.14 1585.6 1179.05 1585.82 1177.83 1585.82ZM1201.96 1576V1549.82H1205.98V1576H1201.96ZM1204 1545.45C1203.22 1545.45 1202.54 1545.19 1201.98 1544.65C1201.42 1544.12 1201.14 1543.48 1201.14 1542.73C1201.14 1541.98 1201.42 1541.34 1201.98 1540.8C1202.54 1540.27 1203.22 1540 1204 1540C1204.79 1540 1205.46 1540.27 1206.02 1540.8C1206.58 1541.34 1206.87 1541.98 1206.87 1542.73C1206.87 1543.48 1206.58 1544.12 1206.02 1544.65C1205.46 1545.19 1204.79 1545.45 1204 1545.45ZM1217.37 1560.25V1576H1213.35V1549.82H1217.24V1553.91H1217.58C1218.19 1552.58 1219.12 1551.51 1220.37 1550.7C1221.62 1549.89 1223.24 1549.48 1225.21 1549.48C1226.99 1549.48 1228.54 1549.84 1229.87 1550.57C1231.2 1551.28 1232.23 1552.38 1232.97 1553.84C1233.71 1555.3 1234.08 1557.14 1234.08 1559.36V1576H1230.05V1559.64C1230.05 1557.58 1229.52 1555.98 1228.45 1554.83C1227.38 1553.67 1225.92 1553.09 1224.05 1553.09C1222.77 1553.09 1221.62 1553.37 1220.61 1553.93C1219.61 1554.48 1218.82 1555.3 1218.24 1556.36C1217.66 1557.43 1217.37 1558.73 1217.37 1560.25ZM1252 1586.36C1250.05 1586.36 1248.38 1586.11 1246.98 1585.61C1245.59 1585.12 1244.42 1584.48 1243.49 1583.67C1242.57 1582.88 1241.84 1582.02 1241.29 1581.11L1244.5 1578.86C1244.86 1579.34 1245.32 1579.89 1245.88 1580.5C1246.43 1581.12 1247.19 1581.66 1248.16 1582.12C1249.14 1582.59 1250.42 1582.82 1252 1582.82C1254.11 1582.82 1255.85 1582.31 1257.23 1581.28C1258.6 1580.26 1259.29 1578.66 1259.29 1576.48V1571.16H1258.95C1258.65 1571.64 1258.23 1572.23 1257.69 1572.93C1257.15 1573.62 1256.38 1574.24 1255.37 1574.79C1254.37 1575.32 1253.02 1575.59 1251.31 1575.59C1249.2 1575.59 1247.3 1575.09 1245.62 1574.09C1243.95 1573.09 1242.63 1571.64 1241.65 1569.73C1240.68 1567.82 1240.2 1565.5 1240.2 1562.77C1240.2 1560.09 1240.67 1557.76 1241.61 1555.77C1242.56 1553.77 1243.87 1552.22 1245.55 1551.13C1247.23 1550.03 1249.18 1549.48 1251.38 1549.48C1253.09 1549.48 1254.44 1549.76 1255.44 1550.33C1256.45 1550.89 1257.22 1551.52 1257.76 1552.24C1258.3 1552.94 1258.72 1553.52 1259.02 1553.98H1259.43V1549.82H1263.31V1576.75C1263.31 1579 1262.8 1580.83 1261.78 1582.24C1260.77 1583.66 1259.4 1584.7 1257.69 1585.36C1255.98 1586.03 1254.09 1586.36 1252 1586.36ZM1251.86 1571.98C1253.47 1571.98 1254.84 1571.61 1255.95 1570.87C1257.06 1570.13 1257.91 1569.07 1258.49 1567.68C1259.07 1566.3 1259.36 1564.64 1259.36 1562.7C1259.36 1560.82 1259.07 1559.15 1258.51 1557.71C1257.94 1556.27 1257.1 1555.14 1255.98 1554.32C1254.87 1553.5 1253.5 1553.09 1251.86 1553.09C1250.15 1553.09 1248.73 1553.52 1247.6 1554.39C1246.47 1555.25 1245.63 1556.41 1245.06 1557.86C1244.5 1559.32 1244.22 1560.93 1244.22 1562.7C1244.22 1564.52 1244.51 1566.13 1245.07 1567.53C1245.65 1568.91 1246.51 1570.01 1247.63 1570.8C1248.77 1571.59 1250.18 1571.98 1251.86 1571.98ZM1024.33 1643V1608.09H1045.26V1611.84H1028.56V1623.64H1043.7V1627.39H1028.56V1643H1024.33ZM1059.66 1643.61C1058 1643.61 1056.5 1643.3 1055.15 1642.68C1053.79 1642.04 1052.72 1641.12 1051.92 1639.93C1051.13 1638.73 1050.73 1637.27 1050.73 1635.57C1050.73 1634.07 1051.03 1632.85 1051.62 1631.92C1052.21 1630.98 1053 1630.24 1053.99 1629.7C1054.98 1629.17 1056.07 1628.77 1057.26 1628.51C1058.46 1628.24 1059.67 1628.02 1060.89 1627.86C1062.48 1627.66 1063.77 1627.51 1064.76 1627.4C1065.76 1627.29 1066.49 1627.1 1066.94 1626.84C1067.41 1626.58 1067.64 1626.12 1067.64 1625.48V1625.34C1067.64 1623.66 1067.18 1622.35 1066.26 1621.42C1065.35 1620.49 1063.97 1620.02 1062.12 1620.02C1060.2 1620.02 1058.69 1620.44 1057.6 1621.28C1056.51 1622.12 1055.74 1623.02 1055.3 1623.98L1051.48 1622.61C1052.16 1621.02 1053.07 1619.78 1054.21 1618.9C1055.36 1618 1056.61 1617.37 1057.96 1617.02C1059.32 1616.66 1060.66 1616.48 1061.98 1616.48C1062.82 1616.48 1063.79 1616.58 1064.88 1616.78C1065.98 1616.98 1067.04 1617.38 1068.07 1617.99C1069.1 1618.61 1069.96 1619.53 1070.64 1620.77C1071.32 1622.01 1071.66 1623.67 1071.66 1625.75V1643H1067.64V1639.45H1067.44C1067.16 1640.02 1066.71 1640.63 1066.07 1641.28C1065.44 1641.93 1064.59 1642.48 1063.53 1642.93C1062.48 1643.39 1061.19 1643.61 1059.66 1643.61ZM1060.28 1640C1061.87 1640 1063.21 1639.69 1064.3 1639.06C1065.4 1638.44 1066.23 1637.63 1066.79 1636.64C1067.36 1635.65 1067.64 1634.61 1067.64 1633.52V1629.84C1067.47 1630.05 1067.09 1630.23 1066.52 1630.4C1065.95 1630.56 1065.29 1630.7 1064.54 1630.83C1063.8 1630.94 1063.08 1631.05 1062.37 1631.14C1061.68 1631.22 1061.12 1631.28 1060.69 1631.34C1059.64 1631.48 1058.66 1631.7 1057.75 1632.01C1056.86 1632.3 1056.13 1632.75 1055.57 1633.35C1055.03 1633.94 1054.75 1634.75 1054.75 1635.77C1054.75 1637.17 1055.27 1638.23 1056.3 1638.94C1057.35 1639.65 1058.67 1640 1060.28 1640ZM1089.64 1643.55C1087.19 1643.55 1085.07 1642.97 1083.3 1641.81C1081.53 1640.65 1080.16 1639.05 1079.21 1637.02C1078.26 1634.98 1077.78 1632.66 1077.78 1630.05C1077.78 1627.39 1078.27 1625.04 1079.24 1623.01C1080.23 1620.96 1081.61 1619.36 1083.37 1618.22C1085.14 1617.06 1087.21 1616.48 1089.57 1616.48C1091.41 1616.48 1093.07 1616.82 1094.55 1617.5C1096.03 1618.18 1097.24 1619.14 1098.18 1620.36C1099.12 1621.59 1099.71 1623.02 1099.94 1624.66H1095.91C1095.61 1623.47 1094.93 1622.41 1093.87 1621.49C1092.82 1620.56 1091.41 1620.09 1089.64 1620.09C1088.07 1620.09 1086.7 1620.5 1085.52 1621.32C1084.35 1622.12 1083.43 1623.27 1082.77 1624.74C1082.12 1626.21 1081.8 1627.93 1081.8 1629.91C1081.8 1631.93 1082.12 1633.69 1082.76 1635.19C1083.4 1636.69 1084.31 1637.86 1085.48 1638.69C1086.66 1639.52 1088.05 1639.93 1089.64 1639.93C1090.69 1639.93 1091.64 1639.75 1092.49 1639.39C1093.34 1639.02 1094.06 1638.5 1094.65 1637.82C1095.24 1637.14 1095.66 1636.32 1095.91 1635.36H1099.94C1099.71 1636.91 1099.15 1638.3 1098.25 1639.54C1097.36 1640.77 1096.19 1641.74 1094.72 1642.47C1093.27 1643.19 1091.57 1643.55 1089.64 1643.55ZM1117.2 1616.82V1620.23H1103.64V1616.82H1117.2ZM1107.59 1610.55H1111.61V1635.5C1111.61 1636.64 1111.78 1637.49 1112.11 1638.06C1112.45 1638.61 1112.88 1638.99 1113.4 1639.18C1113.94 1639.36 1114.5 1639.45 1115.09 1639.45C1115.53 1639.45 1115.9 1639.43 1116.18 1639.39C1116.47 1639.33 1116.69 1639.28 1116.86 1639.25L1117.68 1642.86C1117.41 1642.97 1117.03 1643.07 1116.54 1643.17C1116.05 1643.28 1115.43 1643.34 1114.68 1643.34C1113.54 1643.34 1112.43 1643.1 1111.34 1642.61C1110.26 1642.12 1109.36 1641.38 1108.65 1640.38C1107.94 1639.38 1107.59 1638.11 1107.59 1636.59V1610.55ZM1133.61 1643.55C1131.25 1643.55 1129.17 1642.98 1127.39 1641.86C1125.62 1640.73 1124.23 1639.16 1123.23 1637.14C1122.24 1635.11 1121.75 1632.75 1121.75 1630.05C1121.75 1627.32 1122.24 1624.94 1123.23 1622.9C1124.23 1620.87 1125.62 1619.29 1127.39 1618.16C1129.17 1617.04 1131.25 1616.48 1133.61 1616.48C1135.97 1616.48 1138.04 1617.04 1139.81 1618.16C1141.6 1619.29 1142.99 1620.87 1143.97 1622.9C1144.97 1624.94 1145.47 1627.32 1145.47 1630.05C1145.47 1632.75 1144.97 1635.11 1143.97 1637.14C1142.99 1639.16 1141.6 1640.73 1139.81 1641.86C1138.04 1642.98 1135.97 1643.55 1133.61 1643.55ZM1133.61 1639.93C1135.41 1639.93 1136.88 1639.47 1138.04 1638.55C1139.2 1637.63 1140.06 1636.42 1140.62 1634.92C1141.17 1633.42 1141.45 1631.8 1141.45 1630.05C1141.45 1628.3 1141.17 1626.66 1140.62 1625.15C1140.06 1623.64 1139.2 1622.42 1138.04 1621.49C1136.88 1620.56 1135.41 1620.09 1133.61 1620.09C1131.81 1620.09 1130.34 1620.56 1129.18 1621.49C1128.02 1622.42 1127.16 1623.64 1126.6 1625.15C1126.05 1626.66 1125.77 1628.3 1125.77 1630.05C1125.77 1631.8 1126.05 1633.42 1126.6 1634.92C1127.16 1636.42 1128.02 1637.63 1129.18 1638.55C1130.34 1639.47 1131.81 1639.93 1133.61 1639.93ZM1151.61 1643V1616.82H1155.5V1620.77H1155.77C1156.25 1619.48 1157.11 1618.43 1158.36 1617.62C1159.61 1616.81 1161.02 1616.41 1162.59 1616.41C1162.89 1616.41 1163.26 1616.41 1163.7 1616.43C1164.14 1616.44 1164.48 1616.45 1164.71 1616.48V1620.57C1164.57 1620.53 1164.26 1620.48 1163.77 1620.41C1163.29 1620.34 1162.78 1620.3 1162.25 1620.3C1160.98 1620.3 1159.84 1620.56 1158.84 1621.1C1157.85 1621.62 1157.07 1622.35 1156.49 1623.28C1155.92 1624.2 1155.64 1625.25 1155.64 1626.43V1643H1151.61Z" fill="#080000"/>
<rect x="991.104" y="1715" width="522" height="118" fill="#FFFCFC"/>
<path d="M1075.33 1794V1759.09H1079.56V1790.25H1095.79V1794H1075.33ZM1101.79 1794V1767.82H1105.81V1794H1101.79ZM1103.83 1763.45C1103.05 1763.45 1102.37 1763.19 1101.8 1762.65C1101.25 1762.12 1100.97 1761.48 1100.97 1760.73C1100.97 1759.98 1101.25 1759.34 1101.8 1758.8C1102.37 1758.27 1103.05 1758 1103.83 1758C1104.62 1758 1105.29 1758.27 1105.84 1758.8C1106.41 1759.34 1106.7 1759.98 1106.7 1760.73C1106.7 1761.48 1106.41 1762.12 1105.84 1762.65C1105.29 1763.19 1104.62 1763.45 1103.83 1763.45ZM1124.84 1767.82V1771.23H1110.72V1767.82H1124.84ZM1114.95 1794V1764.2C1114.95 1762.7 1115.3 1761.45 1116.01 1760.45C1116.71 1759.45 1117.63 1758.7 1118.75 1758.2C1119.88 1757.7 1121.06 1757.45 1122.31 1757.45C1123.3 1757.45 1124.11 1757.53 1124.73 1757.69C1125.36 1757.85 1125.82 1758 1126.13 1758.14L1124.97 1761.61C1124.77 1761.55 1124.48 1761.46 1124.12 1761.36C1123.77 1761.26 1123.3 1761.2 1122.72 1761.2C1121.39 1761.2 1120.43 1761.54 1119.84 1762.21C1119.26 1762.88 1118.97 1763.86 1118.97 1765.16V1794H1114.95ZM1140.37 1794.55C1137.85 1794.55 1135.67 1793.99 1133.84 1792.88C1132.03 1791.75 1130.62 1790.18 1129.63 1788.17C1128.66 1786.15 1128.17 1783.8 1128.17 1781.11C1128.17 1778.43 1128.66 1776.07 1129.63 1774.02C1130.62 1771.97 1132 1770.36 1133.76 1769.22C1135.53 1768.06 1137.6 1767.48 1139.96 1767.48C1141.33 1767.48 1142.67 1767.7 1144 1768.16C1145.33 1768.61 1146.54 1769.35 1147.63 1770.38C1148.73 1771.39 1149.59 1772.73 1150.24 1774.4C1150.89 1776.07 1151.21 1778.12 1151.21 1780.57V1782.27H1131.03V1778.8H1147.12C1147.12 1777.32 1146.83 1776 1146.24 1774.84C1145.66 1773.68 1144.83 1772.77 1143.75 1772.1C1142.68 1771.43 1141.42 1771.09 1139.96 1771.09C1138.36 1771.09 1136.98 1771.49 1135.8 1772.28C1134.65 1773.07 1133.75 1774.09 1133.13 1775.35C1132.5 1776.61 1132.19 1777.97 1132.19 1779.41V1781.73C1132.19 1783.7 1132.53 1785.38 1133.21 1786.76C1133.91 1788.12 1134.87 1789.16 1136.09 1789.88C1137.32 1790.58 1138.75 1790.93 1140.37 1790.93C1141.43 1790.93 1142.38 1790.78 1143.24 1790.49C1144.1 1790.18 1144.84 1789.73 1145.47 1789.12C1146.09 1788.51 1146.58 1787.75 1146.92 1786.84L1150.8 1787.93C1150.4 1789.25 1149.71 1790.41 1148.74 1791.41C1147.78 1792.4 1146.58 1793.17 1145.16 1793.73C1143.74 1794.27 1142.15 1794.55 1140.37 1794.55ZM1094.42 1834.82C1094.22 1833.09 1093.39 1831.75 1091.93 1830.8C1090.48 1829.84 1088.7 1829.36 1086.58 1829.36C1085.04 1829.36 1083.68 1829.61 1082.52 1830.11C1081.38 1830.61 1080.48 1831.3 1079.83 1832.18C1079.2 1833.05 1078.88 1834.05 1078.88 1835.16C1078.88 1836.09 1079.1 1836.89 1079.54 1837.56C1080 1838.22 1080.58 1838.77 1081.28 1839.22C1081.99 1839.65 1082.72 1840.01 1083.5 1840.29C1084.27 1840.56 1084.98 1840.78 1085.63 1840.95L1089.17 1841.91C1090.08 1842.15 1091.09 1842.48 1092.21 1842.9C1093.33 1843.32 1094.41 1843.89 1095.43 1844.62C1096.46 1845.34 1097.31 1846.26 1097.99 1847.38C1098.66 1848.51 1098.99 1849.89 1098.99 1851.52C1098.99 1853.41 1098.5 1855.11 1097.51 1856.64C1096.53 1858.16 1095.1 1859.37 1093.21 1860.27C1091.34 1861.16 1089.06 1861.61 1086.38 1861.61C1083.88 1861.61 1081.71 1861.21 1079.88 1860.4C1078.06 1859.6 1076.63 1858.47 1075.59 1857.03C1074.55 1855.59 1073.97 1853.91 1073.83 1852H1078.2C1078.31 1853.32 1078.75 1854.41 1079.52 1855.27C1080.31 1856.12 1081.3 1856.76 1082.49 1857.18C1083.7 1857.59 1084.99 1857.8 1086.38 1857.8C1087.99 1857.8 1089.44 1857.53 1090.72 1857.01C1092.01 1856.48 1093.02 1855.74 1093.77 1854.8C1094.52 1853.84 1094.9 1852.73 1094.9 1851.45C1094.9 1850.3 1094.58 1849.35 1093.93 1848.62C1093.28 1847.9 1092.43 1847.31 1091.37 1846.85C1090.31 1846.4 1089.17 1846 1087.95 1845.66L1083.65 1844.43C1080.92 1843.65 1078.76 1842.53 1077.17 1841.07C1075.58 1839.62 1074.79 1837.72 1074.79 1835.36C1074.79 1833.41 1075.31 1831.7 1076.37 1830.25C1077.44 1828.78 1078.87 1827.65 1080.67 1826.84C1082.47 1826.02 1084.49 1825.61 1086.72 1825.61C1088.97 1825.61 1090.97 1826.02 1092.72 1826.82C1094.47 1827.62 1095.85 1828.71 1096.88 1830.1C1097.91 1831.48 1098.46 1833.06 1098.51 1834.82H1094.42ZM1105.4 1870.82V1834.82H1109.28V1838.98H1109.76C1110.05 1838.52 1110.46 1837.94 1110.99 1837.24C1111.52 1836.52 1112.28 1835.89 1113.27 1835.33C1114.27 1834.76 1115.62 1834.48 1117.33 1834.48C1119.53 1834.48 1121.48 1835.03 1123.16 1836.13C1124.84 1837.23 1126.15 1838.8 1127.09 1840.82C1128.04 1842.84 1128.51 1845.23 1128.51 1847.98C1128.51 1850.75 1128.04 1853.15 1127.09 1855.19C1126.15 1857.21 1124.84 1858.78 1123.17 1859.89C1121.5 1860.99 1119.58 1861.55 1117.4 1861.55C1115.71 1861.55 1114.37 1861.27 1113.36 1860.71C1112.34 1860.14 1111.57 1859.5 1111.02 1858.78C1110.48 1858.06 1110.05 1857.45 1109.76 1856.98H1109.42V1870.82H1105.4ZM1109.35 1847.91C1109.35 1849.89 1109.64 1851.63 1110.22 1853.14C1110.8 1854.64 1111.65 1855.82 1112.76 1856.67C1113.87 1857.51 1115.24 1857.93 1116.85 1857.93C1118.53 1857.93 1119.94 1857.49 1121.06 1856.6C1122.2 1855.7 1123.05 1854.5 1123.62 1852.99C1124.2 1851.47 1124.49 1849.77 1124.49 1847.91C1124.49 1846.07 1124.2 1844.41 1123.63 1842.93C1123.08 1841.44 1122.23 1840.27 1121.09 1839.4C1119.97 1838.53 1118.55 1838.09 1116.85 1838.09C1115.21 1838.09 1113.84 1838.51 1112.73 1839.34C1111.61 1840.15 1110.77 1841.3 1110.2 1842.78C1109.63 1844.24 1109.35 1845.95 1109.35 1847.91ZM1142.35 1861.61C1140.69 1861.61 1139.19 1861.3 1137.83 1860.68C1136.48 1860.04 1135.41 1859.12 1134.61 1857.93C1133.82 1856.73 1133.42 1855.27 1133.42 1853.57C1133.42 1852.07 1133.71 1850.85 1134.3 1849.92C1134.9 1848.98 1135.69 1848.24 1136.67 1847.7C1137.66 1847.17 1138.75 1846.77 1139.95 1846.51C1141.15 1846.24 1142.36 1846.02 1143.58 1845.86C1145.17 1845.66 1146.46 1845.51 1147.45 1845.4C1148.45 1845.29 1149.17 1845.1 1149.63 1844.84C1150.09 1844.58 1150.33 1844.12 1150.33 1843.48V1843.34C1150.33 1841.66 1149.87 1840.35 1148.95 1839.42C1148.04 1838.49 1146.66 1838.02 1144.8 1838.02C1142.88 1838.02 1141.38 1838.44 1140.29 1839.28C1139.2 1840.12 1138.43 1841.02 1137.99 1841.98L1134.17 1840.61C1134.85 1839.02 1135.76 1837.78 1136.9 1836.9C1138.04 1836 1139.29 1835.37 1140.65 1835.02C1142.01 1834.66 1143.35 1834.48 1144.67 1834.48C1145.51 1834.48 1146.48 1834.58 1147.57 1834.78C1148.67 1834.98 1149.73 1835.38 1150.75 1835.99C1151.79 1836.61 1152.65 1837.53 1153.33 1838.77C1154.01 1840.01 1154.35 1841.67 1154.35 1843.75V1861H1150.33V1857.45H1150.12C1149.85 1858.02 1149.4 1858.63 1148.76 1859.28C1148.12 1859.93 1147.28 1860.48 1146.22 1860.93C1145.16 1861.39 1143.87 1861.61 1142.35 1861.61ZM1142.96 1858C1144.55 1858 1145.9 1857.69 1146.99 1857.06C1148.09 1856.44 1148.92 1855.63 1149.48 1854.64C1150.04 1853.65 1150.33 1852.61 1150.33 1851.52V1847.84C1150.16 1848.05 1149.78 1848.23 1149.2 1848.4C1148.63 1848.56 1147.98 1848.7 1147.23 1848.83C1146.49 1848.94 1145.77 1849.05 1145.06 1849.14C1144.37 1849.22 1143.8 1849.28 1143.37 1849.34C1142.33 1849.48 1141.35 1849.7 1140.44 1850.01C1139.54 1850.3 1138.82 1850.75 1138.26 1851.35C1137.71 1851.94 1137.44 1852.75 1137.44 1853.77C1137.44 1855.17 1137.96 1856.23 1138.99 1856.94C1140.04 1857.65 1141.36 1858 1142.96 1858ZM1165.72 1845.25V1861H1161.69V1834.82H1165.58V1838.91H1165.92C1166.53 1837.58 1167.47 1836.51 1168.72 1835.7C1169.97 1834.89 1171.58 1834.48 1173.56 1834.48C1175.33 1834.48 1176.88 1834.84 1178.21 1835.57C1179.54 1836.28 1180.57 1837.38 1181.31 1838.84C1182.05 1840.3 1182.42 1842.14 1182.42 1844.36V1861H1178.4V1844.64C1178.4 1842.58 1177.86 1840.98 1176.79 1839.83C1175.73 1838.67 1174.26 1838.09 1172.4 1838.09C1171.11 1838.09 1169.97 1838.37 1168.95 1838.93C1167.95 1839.48 1167.16 1840.3 1166.58 1841.36C1166.01 1842.43 1165.72 1843.73 1165.72 1845.25Z" fill="#080000"/>
<rect x="991.104" y="1960" width="522" height="118" fill="white"/>
<path d="M1051.33 2011.09H1056.38L1068.24 2040.07H1068.65L1080.51 2011.09H1085.56V2046H1081.6V2019.48H1081.26L1070.35 2046H1066.54L1055.63 2019.48H1055.29V2046H1051.33V2011.09ZM1104.47 2046.55C1101.94 2046.55 1099.77 2045.99 1097.94 2044.88C1096.12 2043.75 1094.72 2042.18 1093.73 2040.17C1092.75 2038.15 1092.26 2035.8 1092.26 2033.11C1092.26 2030.43 1092.75 2028.07 1093.73 2026.02C1094.72 2023.97 1096.09 2022.36 1097.85 2021.22C1099.63 2020.06 1101.69 2019.48 1104.06 2019.48C1105.42 2019.48 1106.77 2019.7 1108.1 2020.16C1109.43 2020.61 1110.64 2021.35 1111.73 2022.38C1112.82 2023.39 1113.69 2024.73 1114.34 2026.4C1114.98 2028.07 1115.31 2030.12 1115.31 2032.57V2034.27H1095.13V2030.8H1111.22C1111.22 2029.32 1110.92 2028 1110.33 2026.84C1109.75 2025.68 1108.92 2024.77 1107.84 2024.1C1106.77 2023.43 1105.51 2023.09 1104.06 2023.09C1102.46 2023.09 1101.07 2023.49 1099.9 2024.28C1098.74 2025.07 1097.85 2026.09 1097.22 2027.35C1096.6 2028.61 1096.28 2029.97 1096.28 2031.41V2033.73C1096.28 2035.7 1096.63 2037.38 1097.31 2038.76C1098 2040.12 1098.96 2041.16 1100.19 2041.88C1101.42 2042.58 1102.84 2042.93 1104.47 2042.93C1105.52 2042.93 1106.48 2042.78 1107.33 2042.49C1108.19 2042.18 1108.94 2041.73 1109.56 2041.12C1110.19 2040.51 1110.67 2039.75 1111.01 2038.84L1114.9 2039.93C1114.49 2041.25 1113.8 2042.41 1112.84 2043.41C1111.87 2044.4 1110.68 2045.17 1109.26 2045.73C1107.84 2046.27 1106.24 2046.55 1104.47 2046.55ZM1132.81 2019.82V2023.23H1119.25V2019.82H1132.81ZM1123.2 2013.55H1127.22V2038.5C1127.22 2039.64 1127.39 2040.49 1127.72 2041.06C1128.06 2041.61 1128.49 2041.99 1129.01 2042.18C1129.55 2042.36 1130.11 2042.45 1130.7 2042.45C1131.14 2042.45 1131.51 2042.43 1131.79 2042.39C1132.07 2042.33 1132.3 2042.28 1132.47 2042.25L1133.29 2045.86C1133.02 2045.97 1132.64 2046.07 1132.15 2046.17C1131.66 2046.28 1131.04 2046.34 1130.29 2046.34C1129.15 2046.34 1128.04 2046.1 1126.95 2045.61C1125.87 2045.12 1124.97 2044.38 1124.26 2043.38C1123.55 2042.38 1123.2 2041.11 1123.2 2039.59V2013.55ZM1146.57 2046.61C1144.91 2046.61 1143.4 2046.3 1142.05 2045.68C1140.7 2045.04 1139.63 2044.12 1138.83 2042.93C1138.03 2041.73 1137.64 2040.27 1137.64 2038.57C1137.64 2037.07 1137.93 2035.85 1138.52 2034.92C1139.11 2033.98 1139.9 2033.24 1140.89 2032.7C1141.88 2032.17 1142.97 2031.77 1144.17 2031.51C1145.37 2031.24 1146.58 2031.02 1147.8 2030.86C1149.39 2030.66 1150.68 2030.51 1151.67 2030.4C1152.67 2030.29 1153.39 2030.1 1153.85 2029.84C1154.31 2029.58 1154.55 2029.12 1154.55 2028.48V2028.34C1154.55 2026.66 1154.09 2025.35 1153.17 2024.42C1152.26 2023.49 1150.88 2023.02 1149.02 2023.02C1147.1 2023.02 1145.6 2023.44 1144.51 2024.28C1143.42 2025.12 1142.65 2026.02 1142.21 2026.98L1138.39 2025.61C1139.07 2024.02 1139.98 2022.78 1141.11 2021.9C1142.26 2021 1143.51 2020.37 1144.86 2020.02C1146.23 2019.66 1147.57 2019.48 1148.89 2019.48C1149.73 2019.48 1150.69 2019.58 1151.78 2019.78C1152.89 2019.98 1153.95 2020.38 1154.97 2020.99C1156.01 2021.61 1156.86 2022.53 1157.55 2023.77C1158.23 2025.01 1158.57 2026.67 1158.57 2028.75V2046H1154.55V2042.45H1154.34C1154.07 2043.02 1153.61 2043.63 1152.98 2044.28C1152.34 2044.93 1151.5 2045.48 1150.44 2045.93C1149.38 2046.39 1148.09 2046.61 1146.57 2046.61ZM1147.18 2043C1148.77 2043 1150.11 2042.69 1151.21 2042.06C1152.31 2041.44 1153.14 2040.63 1153.69 2039.64C1154.26 2038.65 1154.55 2037.61 1154.55 2036.52V2032.84C1154.38 2033.05 1154 2033.23 1153.42 2033.4C1152.85 2033.56 1152.19 2033.7 1151.44 2033.83C1150.71 2033.94 1149.98 2034.05 1149.28 2034.14C1148.59 2034.22 1148.02 2034.28 1147.59 2034.34C1146.55 2034.48 1145.57 2034.7 1144.66 2035.01C1143.76 2035.3 1143.03 2035.75 1142.48 2036.35C1141.93 2036.94 1141.66 2037.75 1141.66 2038.77C1141.66 2040.17 1142.18 2041.23 1143.21 2041.94C1144.26 2042.65 1145.58 2043 1147.18 2043ZM1166.46 2046V2011.09H1170.48V2023.98H1170.82C1171.12 2023.52 1171.52 2022.94 1172.05 2022.24C1172.58 2021.52 1173.34 2020.89 1174.33 2020.33C1175.33 2019.76 1176.68 2019.48 1178.39 2019.48C1180.59 2019.48 1182.54 2020.03 1184.22 2021.13C1185.9 2022.23 1187.21 2023.8 1188.16 2025.82C1189.1 2027.84 1189.57 2030.23 1189.57 2032.98C1189.57 2035.75 1189.1 2038.15 1188.16 2040.19C1187.21 2042.21 1185.91 2043.78 1184.24 2044.89C1182.56 2045.99 1180.64 2046.55 1178.46 2046.55C1176.77 2046.55 1175.43 2046.27 1174.42 2045.71C1173.41 2045.14 1172.63 2044.5 1172.08 2043.78C1171.54 2043.06 1171.12 2042.45 1170.82 2041.98H1170.34V2046H1166.46ZM1170.41 2032.91C1170.41 2034.89 1170.7 2036.63 1171.28 2038.14C1171.86 2039.64 1172.71 2040.82 1173.82 2041.67C1174.93 2042.51 1176.3 2042.93 1177.91 2042.93C1179.59 2042.93 1181 2042.49 1182.12 2041.6C1183.26 2040.7 1184.11 2039.5 1184.68 2037.99C1185.26 2036.47 1185.55 2034.77 1185.55 2032.91C1185.55 2031.07 1185.26 2029.41 1184.7 2027.93C1184.14 2026.44 1183.29 2025.27 1182.16 2024.4C1181.03 2023.53 1179.62 2023.09 1177.91 2023.09C1176.27 2023.09 1174.9 2023.51 1173.79 2024.34C1172.67 2025.15 1171.83 2026.3 1171.26 2027.78C1170.7 2029.24 1170.41 2030.95 1170.41 2032.91ZM1206.36 2046.55C1204 2046.55 1201.92 2045.98 1200.14 2044.86C1198.37 2043.73 1196.98 2042.16 1195.98 2040.14C1194.99 2038.11 1194.5 2035.75 1194.5 2033.05C1194.5 2030.32 1194.99 2027.94 1195.98 2025.9C1196.98 2023.87 1198.37 2022.29 1200.14 2021.16C1201.92 2020.04 1204 2019.48 1206.36 2019.48C1208.72 2019.48 1210.79 2020.04 1212.56 2021.16C1214.35 2022.29 1215.74 2023.87 1216.72 2025.9C1217.72 2027.94 1218.22 2030.32 1218.22 2033.05C1218.22 2035.75 1217.72 2038.11 1216.72 2040.14C1215.74 2042.16 1214.35 2043.73 1212.56 2044.86C1210.79 2045.98 1208.72 2046.55 1206.36 2046.55ZM1206.36 2042.93C1208.16 2042.93 1209.63 2042.47 1210.79 2041.55C1211.95 2040.63 1212.81 2039.42 1213.37 2037.92C1213.92 2036.42 1214.2 2034.8 1214.2 2033.05C1214.2 2031.3 1213.92 2029.66 1213.37 2028.15C1212.81 2026.64 1211.95 2025.42 1210.79 2024.49C1209.63 2023.56 1208.16 2023.09 1206.36 2023.09C1204.56 2023.09 1203.09 2023.56 1201.93 2024.49C1200.77 2025.42 1199.91 2026.64 1199.35 2028.15C1198.8 2029.66 1198.52 2031.3 1198.52 2033.05C1198.52 2034.8 1198.8 2036.42 1199.35 2037.92C1199.91 2039.42 1200.77 2040.63 1201.93 2041.55C1203.09 2042.47 1204.56 2042.93 1206.36 2042.93ZM1228.39 2011.09V2046H1224.36V2011.09H1228.39ZM1050.79 2113V2086.82H1054.81V2113H1050.79ZM1052.83 2082.45C1052.05 2082.45 1051.37 2082.19 1050.8 2081.65C1050.25 2081.12 1049.97 2080.48 1049.97 2079.73C1049.97 2078.98 1050.25 2078.34 1050.8 2077.8C1051.37 2077.27 1052.05 2077 1052.83 2077C1053.62 2077 1054.29 2077.27 1054.84 2077.8C1055.41 2078.34 1055.7 2078.98 1055.7 2079.73C1055.7 2080.48 1055.41 2081.12 1054.84 2081.65C1054.29 2082.19 1053.62 2082.45 1052.83 2082.45ZM1080.72 2092.68L1077.11 2093.7C1076.88 2093.1 1076.55 2092.52 1076.1 2091.95C1075.67 2091.37 1075.08 2090.89 1074.33 2090.52C1073.58 2090.14 1072.62 2089.95 1071.45 2089.95C1069.85 2089.95 1068.51 2090.32 1067.44 2091.06C1066.39 2091.79 1065.86 2092.72 1065.86 2093.84C1065.86 2094.84 1066.22 2095.63 1066.95 2096.21C1067.68 2096.79 1068.81 2097.27 1070.36 2097.66L1074.25 2098.61C1076.59 2099.18 1078.33 2100.05 1079.48 2101.22C1080.63 2102.38 1081.2 2103.87 1081.2 2105.7C1081.2 2107.2 1080.77 2108.55 1079.9 2109.73C1079.05 2110.91 1077.86 2111.84 1076.32 2112.52C1074.79 2113.2 1073.01 2113.55 1070.97 2113.55C1068.3 2113.55 1066.09 2112.97 1064.34 2111.81C1062.59 2110.65 1061.48 2108.95 1061.02 2106.73L1064.84 2105.77C1065.2 2107.18 1065.89 2108.24 1066.9 2108.94C1067.92 2109.65 1069.26 2110 1070.9 2110C1072.78 2110 1074.27 2109.6 1075.37 2108.81C1076.48 2108 1077.04 2107.03 1077.04 2105.91C1077.04 2105 1076.72 2104.24 1076.09 2103.62C1075.45 2103 1074.47 2102.53 1073.15 2102.23L1068.79 2101.2C1066.39 2100.64 1064.63 2099.76 1063.51 2098.56C1062.39 2097.36 1061.84 2095.85 1061.84 2094.05C1061.84 2092.57 1062.25 2091.26 1063.08 2090.12C1063.92 2088.99 1065.06 2088.1 1066.51 2087.45C1067.96 2086.8 1069.61 2086.48 1071.45 2086.48C1074.04 2086.48 1076.07 2087.05 1077.55 2088.18C1079.04 2089.32 1080.1 2090.82 1080.72 2092.68ZM1087.26 2113V2086.82H1091.14V2090.91H1091.48C1092.03 2089.51 1092.91 2088.43 1094.12 2087.65C1095.34 2086.87 1096.8 2086.48 1098.51 2086.48C1100.23 2086.48 1101.67 2086.87 1102.82 2087.65C1103.98 2088.43 1104.88 2089.51 1105.53 2090.91H1105.8C1106.47 2089.56 1107.48 2088.48 1108.82 2087.69C1110.16 2086.88 1111.77 2086.48 1113.64 2086.48C1115.98 2086.48 1117.9 2087.21 1119.39 2088.68C1120.87 2090.13 1121.62 2092.4 1121.62 2095.48V2113H1117.6V2095.48C1117.6 2093.55 1117.07 2092.16 1116.01 2091.34C1114.95 2090.51 1113.71 2090.09 1112.28 2090.09C1110.44 2090.09 1109.01 2090.65 1108 2091.76C1106.99 2092.86 1106.48 2094.26 1106.48 2095.95V2113H1102.39V2095.07C1102.39 2093.58 1101.91 2092.38 1100.94 2091.47C1099.98 2090.55 1098.73 2090.09 1097.21 2090.09C1096.16 2090.09 1095.19 2090.37 1094.28 2090.93C1093.38 2091.48 1092.65 2092.26 1092.1 2093.24C1091.55 2094.22 1091.28 2095.35 1091.28 2096.64V2113H1087.26Z" fill="#080000"/>
<path d="M309.859 1028.84C309.859 1028.84 747.713 983.523 675.645 1201.8C603.576 1420.08 1041.7 1262.06 1041.7 1262.06" stroke="white" stroke-width="11"/>
<rect x="985.104" y="2182" width="528" height="93" fill="white"/>
<path d="M1053.33 2263V2228.09H1065.13C1067.87 2228.09 1070.1 2228.59 1071.84 2229.57C1073.59 2230.55 1074.89 2231.88 1075.73 2233.55C1076.57 2235.22 1076.99 2237.08 1076.99 2239.14C1076.99 2241.19 1076.57 2243.06 1075.73 2244.74C1074.9 2246.43 1073.62 2247.77 1071.88 2248.77C1070.14 2249.76 1067.91 2250.25 1065.2 2250.25H1056.74V2246.5H1065.06C1066.93 2246.5 1068.44 2246.18 1069.58 2245.53C1070.71 2244.88 1071.54 2244.01 1072.05 2242.9C1072.57 2241.79 1072.83 2240.53 1072.83 2239.14C1072.83 2237.74 1072.57 2236.49 1072.05 2235.39C1071.54 2234.28 1070.71 2233.42 1069.56 2232.8C1068.41 2232.16 1066.89 2231.84 1064.99 2231.84H1057.56V2263H1053.33ZM1093.61 2263.55C1091.25 2263.55 1089.17 2262.98 1087.39 2261.86C1085.62 2260.73 1084.23 2259.16 1083.23 2257.14C1082.24 2255.11 1081.75 2252.75 1081.75 2250.05C1081.75 2247.32 1082.24 2244.94 1083.23 2242.9C1084.23 2240.87 1085.62 2239.29 1087.39 2238.16C1089.17 2237.04 1091.25 2236.48 1093.61 2236.48C1095.97 2236.48 1098.04 2237.04 1099.81 2238.16C1101.6 2239.29 1102.99 2240.87 1103.97 2242.9C1104.97 2244.94 1105.47 2247.32 1105.47 2250.05C1105.47 2252.75 1104.97 2255.11 1103.97 2257.14C1102.99 2259.16 1101.6 2260.73 1099.81 2261.86C1098.04 2262.98 1095.97 2263.55 1093.61 2263.55ZM1093.61 2259.93C1095.41 2259.93 1096.88 2259.47 1098.04 2258.55C1099.2 2257.63 1100.06 2256.42 1100.62 2254.92C1101.17 2253.42 1101.45 2251.8 1101.45 2250.05C1101.45 2248.3 1101.17 2246.66 1100.62 2245.15C1100.06 2243.64 1099.2 2242.42 1098.04 2241.49C1096.88 2240.56 1095.41 2240.09 1093.61 2240.09C1091.81 2240.09 1090.34 2240.56 1089.18 2241.49C1088.02 2242.42 1087.16 2243.64 1086.6 2245.15C1086.05 2246.66 1085.77 2248.3 1085.77 2250.05C1085.77 2251.8 1086.05 2253.42 1086.6 2254.92C1087.16 2256.42 1088.02 2257.63 1089.18 2258.55C1090.34 2259.47 1091.81 2259.93 1093.61 2259.93ZM1111.61 2272.82V2236.82H1115.5V2240.98H1115.98C1116.27 2240.52 1116.68 2239.94 1117.21 2239.24C1117.74 2238.52 1118.5 2237.89 1119.49 2237.33C1120.49 2236.76 1121.84 2236.48 1123.55 2236.48C1125.75 2236.48 1127.69 2237.03 1129.38 2238.13C1131.06 2239.23 1132.37 2240.8 1133.31 2242.82C1134.26 2244.84 1134.73 2247.23 1134.73 2249.98C1134.73 2252.75 1134.26 2255.15 1133.31 2257.19C1132.37 2259.21 1131.06 2260.78 1129.39 2261.89C1127.72 2262.99 1125.8 2263.55 1123.61 2263.55C1121.93 2263.55 1120.59 2263.27 1119.57 2262.71C1118.56 2262.14 1117.78 2261.5 1117.24 2260.78C1116.69 2260.06 1116.27 2259.45 1115.98 2258.98H1115.64V2272.82H1111.61ZM1115.57 2249.91C1115.57 2251.89 1115.86 2253.63 1116.44 2255.14C1117.02 2256.64 1117.86 2257.82 1118.98 2258.67C1120.09 2259.51 1121.46 2259.93 1123.07 2259.93C1124.75 2259.93 1126.15 2259.49 1127.28 2258.6C1128.42 2257.7 1129.27 2256.5 1129.84 2254.99C1130.42 2253.47 1130.71 2251.77 1130.71 2249.91C1130.71 2248.07 1130.42 2246.41 1129.85 2244.93C1129.3 2243.44 1128.45 2242.27 1127.31 2241.4C1126.19 2240.53 1124.77 2240.09 1123.07 2240.09C1121.43 2240.09 1120.06 2240.51 1118.94 2241.34C1117.83 2242.15 1116.99 2243.3 1116.42 2244.78C1115.85 2246.24 1115.57 2247.95 1115.57 2249.91ZM1157.36 2252.3V2236.82H1161.39V2263H1157.36V2258.57H1157.09C1156.48 2259.9 1155.52 2261.03 1154.23 2261.96C1152.93 2262.88 1151.3 2263.34 1149.32 2263.34C1147.68 2263.34 1146.23 2262.98 1144.96 2262.27C1143.68 2261.54 1142.68 2260.45 1141.96 2258.99C1141.23 2257.53 1140.86 2255.68 1140.86 2253.45V2236.82H1144.89V2253.18C1144.89 2255.09 1145.42 2256.61 1146.49 2257.75C1147.57 2258.89 1148.94 2259.45 1150.61 2259.45C1151.61 2259.45 1152.63 2259.2 1153.67 2258.69C1154.71 2258.18 1155.59 2257.39 1156.29 2256.34C1157.01 2255.28 1157.36 2253.93 1157.36 2252.3ZM1172.78 2228.09V2263H1168.76V2228.09H1172.78ZM1187.85 2263.61C1186.19 2263.61 1184.69 2263.3 1183.33 2262.68C1181.98 2262.04 1180.91 2261.12 1180.11 2259.93C1179.32 2258.73 1178.92 2257.27 1178.92 2255.57C1178.92 2254.07 1179.21 2252.85 1179.8 2251.92C1180.4 2250.98 1181.19 2250.24 1182.17 2249.7C1183.16 2249.17 1184.25 2248.77 1185.45 2248.51C1186.65 2248.24 1187.86 2248.02 1189.08 2247.86C1190.67 2247.66 1191.96 2247.51 1192.95 2247.4C1193.95 2247.29 1194.67 2247.1 1195.13 2246.84C1195.59 2246.58 1195.83 2246.12 1195.83 2245.48V2245.34C1195.83 2243.66 1195.37 2242.35 1194.45 2241.42C1193.54 2240.49 1192.16 2240.02 1190.3 2240.02C1188.38 2240.02 1186.88 2240.44 1185.79 2241.28C1184.7 2242.12 1183.93 2243.02 1183.49 2243.98L1179.67 2242.61C1180.35 2241.02 1181.26 2239.78 1182.4 2238.9C1183.54 2238 1184.79 2237.37 1186.15 2237.02C1187.51 2236.66 1188.85 2236.48 1190.17 2236.48C1191.01 2236.48 1191.98 2236.58 1193.07 2236.78C1194.17 2236.98 1195.23 2237.38 1196.25 2237.99C1197.29 2238.61 1198.15 2239.53 1198.83 2240.77C1199.51 2242.01 1199.85 2243.67 1199.85 2245.75V2263H1195.83V2259.45H1195.62C1195.35 2260.02 1194.9 2260.63 1194.26 2261.28C1193.62 2261.93 1192.78 2262.48 1191.72 2262.93C1190.66 2263.39 1189.37 2263.61 1187.85 2263.61ZM1188.46 2260C1190.05 2260 1191.4 2259.69 1192.49 2259.06C1193.59 2258.44 1194.42 2257.63 1194.98 2256.64C1195.54 2255.65 1195.83 2254.61 1195.83 2253.52V2249.84C1195.66 2250.05 1195.28 2250.23 1194.7 2250.4C1194.13 2250.56 1193.48 2250.7 1192.73 2250.83C1191.99 2250.94 1191.27 2251.05 1190.56 2251.14C1189.87 2251.22 1189.3 2251.28 1188.87 2251.34C1187.83 2251.48 1186.85 2251.7 1185.94 2252.01C1185.04 2252.3 1184.32 2252.75 1183.76 2253.35C1183.21 2253.94 1182.94 2254.75 1182.94 2255.77C1182.94 2257.17 1183.46 2258.23 1184.49 2258.94C1185.54 2259.65 1186.86 2260 1188.46 2260ZM1218.58 2236.82V2240.23H1205.01V2236.82H1218.58ZM1208.97 2230.55H1212.99V2255.5C1212.99 2256.64 1213.15 2257.49 1213.48 2258.06C1213.82 2258.61 1214.26 2258.99 1214.78 2259.18C1215.31 2259.36 1215.87 2259.45 1216.47 2259.45C1216.91 2259.45 1217.27 2259.43 1217.56 2259.39C1217.84 2259.33 1218.07 2259.28 1218.24 2259.25L1219.06 2262.86C1218.78 2262.97 1218.4 2263.07 1217.91 2263.17C1217.43 2263.28 1216.81 2263.34 1216.06 2263.34C1214.92 2263.34 1213.81 2263.1 1212.72 2262.61C1211.64 2262.12 1210.74 2261.38 1210.02 2260.38C1209.32 2259.38 1208.97 2258.11 1208.97 2256.59V2230.55ZM1224.63 2263V2236.82H1228.65V2263H1224.63ZM1226.68 2232.45C1225.89 2232.45 1225.22 2232.19 1224.65 2231.65C1224.09 2231.12 1223.81 2230.48 1223.81 2229.73C1223.81 2228.98 1224.09 2228.34 1224.65 2227.8C1225.22 2227.27 1225.89 2227 1226.68 2227C1227.46 2227 1228.13 2227.27 1228.69 2227.8C1229.26 2228.34 1229.54 2228.98 1229.54 2229.73C1229.54 2230.48 1229.26 2231.12 1228.69 2231.65C1228.13 2232.19 1227.46 2232.45 1226.68 2232.45ZM1246.66 2263.55C1244.29 2263.55 1242.22 2262.98 1240.44 2261.86C1238.66 2260.73 1237.28 2259.16 1236.28 2257.14C1235.29 2255.11 1234.79 2252.75 1234.79 2250.05C1234.79 2247.32 1235.29 2244.94 1236.28 2242.9C1237.28 2240.87 1238.66 2239.29 1240.44 2238.16C1242.22 2237.04 1244.29 2236.48 1246.66 2236.48C1249.02 2236.48 1251.09 2237.04 1252.86 2238.16C1254.65 2239.29 1256.03 2240.87 1257.02 2242.9C1258.02 2244.94 1258.52 2247.32 1258.52 2250.05C1258.52 2252.75 1258.02 2255.11 1257.02 2257.14C1256.03 2259.16 1254.65 2260.73 1252.86 2261.86C1251.09 2262.98 1249.02 2263.55 1246.66 2263.55ZM1246.66 2259.93C1248.45 2259.93 1249.93 2259.47 1251.09 2258.55C1252.25 2257.63 1253.11 2256.42 1253.66 2254.92C1254.22 2253.42 1254.5 2251.8 1254.5 2250.05C1254.5 2248.3 1254.22 2246.66 1253.66 2245.15C1253.11 2243.64 1252.25 2242.42 1251.09 2241.49C1249.93 2240.56 1248.45 2240.09 1246.66 2240.09C1244.86 2240.09 1243.38 2240.56 1242.23 2241.49C1241.07 2242.42 1240.21 2243.64 1239.65 2245.15C1239.09 2246.66 1238.82 2248.3 1238.82 2250.05C1238.82 2251.8 1239.09 2253.42 1239.65 2254.92C1240.21 2256.42 1241.07 2257.63 1242.23 2258.55C1243.38 2259.47 1244.86 2259.93 1246.66 2259.93ZM1268.68 2247.25V2263H1264.66V2236.82H1268.55V2240.91H1268.89C1269.5 2239.58 1270.43 2238.51 1271.68 2237.7C1272.93 2236.89 1274.55 2236.48 1276.52 2236.48C1278.3 2236.48 1279.85 2236.84 1281.18 2237.57C1282.51 2238.28 1283.54 2239.38 1284.28 2240.84C1285.02 2242.3 1285.39 2244.14 1285.39 2246.36V2263H1281.37V2246.64C1281.37 2244.58 1280.83 2242.98 1279.76 2241.83C1278.7 2240.67 1277.23 2240.09 1275.37 2240.09C1274.08 2240.09 1272.93 2240.37 1271.92 2240.93C1270.92 2241.48 1270.13 2242.3 1269.55 2243.36C1268.97 2244.43 1268.68 2245.73 1268.68 2247.25ZM1306.24 2263V2236.82H1310.26V2263H1306.24ZM1308.28 2232.45C1307.5 2232.45 1306.82 2232.19 1306.26 2231.65C1305.7 2231.12 1305.42 2230.48 1305.42 2229.73C1305.42 2228.98 1305.7 2228.34 1306.26 2227.8C1306.82 2227.27 1307.5 2227 1308.28 2227C1309.07 2227 1309.74 2227.27 1310.3 2227.8C1310.86 2228.34 1311.15 2228.98 1311.15 2229.73C1311.15 2230.48 1310.86 2231.12 1310.3 2231.65C1309.74 2232.19 1309.07 2232.45 1308.28 2232.45ZM1321.65 2247.25V2263H1317.63V2236.82H1321.52V2240.91H1321.86C1322.47 2239.58 1323.4 2238.51 1324.65 2237.7C1325.9 2236.89 1327.52 2236.48 1329.49 2236.48C1331.27 2236.48 1332.82 2236.84 1334.15 2237.57C1335.48 2238.28 1336.51 2239.38 1337.25 2240.84C1337.99 2242.3 1338.36 2244.14 1338.36 2246.36V2263H1334.33V2246.64C1334.33 2244.58 1333.8 2242.98 1332.73 2241.83C1331.66 2240.67 1330.2 2240.09 1328.33 2240.09C1327.05 2240.09 1325.9 2240.37 1324.89 2240.93C1323.89 2241.48 1323.1 2242.3 1322.52 2243.36C1321.94 2244.43 1321.65 2245.73 1321.65 2247.25ZM1345.71 2263V2236.82H1349.73V2263H1345.71ZM1347.75 2232.45C1346.97 2232.45 1346.29 2232.19 1345.73 2231.65C1345.17 2231.12 1344.89 2230.48 1344.89 2229.73C1344.89 2228.98 1345.17 2228.34 1345.73 2227.8C1346.29 2227.27 1346.97 2227 1347.75 2227C1348.54 2227 1349.21 2227.27 1349.77 2227.8C1350.33 2228.34 1350.62 2228.98 1350.62 2229.73C1350.62 2230.48 1350.33 2231.12 1349.77 2231.65C1349.21 2232.19 1348.54 2232.45 1347.75 2232.45ZM1368.49 2236.82V2240.23H1354.92V2236.82H1368.49ZM1358.87 2230.55H1362.89V2255.5C1362.89 2256.64 1363.06 2257.49 1363.39 2258.06C1363.73 2258.61 1364.16 2258.99 1364.68 2259.18C1365.22 2259.36 1365.78 2259.45 1366.37 2259.45C1366.81 2259.45 1367.18 2259.43 1367.46 2259.39C1367.75 2259.33 1367.97 2259.28 1368.14 2259.25L1368.96 2262.86C1368.69 2262.97 1368.31 2263.07 1367.82 2263.17C1367.33 2263.28 1366.71 2263.34 1365.96 2263.34C1364.83 2263.34 1363.71 2263.1 1362.62 2262.61C1361.54 2262.12 1360.64 2261.38 1359.93 2260.38C1359.22 2259.38 1358.87 2258.11 1358.87 2256.59V2230.55ZM1382.24 2263.61C1380.58 2263.61 1379.08 2263.3 1377.72 2262.68C1376.37 2262.04 1375.3 2261.12 1374.5 2259.93C1373.71 2258.73 1373.31 2257.27 1373.31 2255.57C1373.31 2254.07 1373.6 2252.85 1374.2 2251.92C1374.79 2250.98 1375.58 2250.24 1376.56 2249.7C1377.55 2249.17 1378.64 2248.77 1379.84 2248.51C1381.04 2248.24 1382.25 2248.02 1383.47 2247.86C1385.06 2247.66 1386.35 2247.51 1387.34 2247.4C1388.34 2247.29 1389.06 2247.1 1389.52 2246.84C1389.99 2246.58 1390.22 2246.12 1390.22 2245.48V2245.34C1390.22 2243.66 1389.76 2242.35 1388.84 2241.42C1387.93 2240.49 1386.55 2240.02 1384.7 2240.02C1382.77 2240.02 1381.27 2240.44 1380.18 2241.28C1379.09 2242.12 1378.32 2243.02 1377.88 2243.98L1374.06 2242.61C1374.74 2241.02 1375.65 2239.78 1376.79 2238.9C1377.93 2238 1379.18 2237.37 1380.54 2237.02C1381.9 2236.66 1383.24 2236.48 1384.56 2236.48C1385.4 2236.48 1386.37 2236.58 1387.46 2236.78C1388.56 2236.98 1389.62 2237.38 1390.64 2237.99C1391.68 2238.61 1392.54 2239.53 1393.22 2240.77C1393.9 2242.01 1394.24 2243.67 1394.24 2245.75V2263H1390.22V2259.45H1390.01C1389.74 2260.02 1389.29 2260.63 1388.65 2261.28C1388.01 2261.93 1387.17 2262.48 1386.11 2262.93C1385.05 2263.39 1383.76 2263.61 1382.24 2263.61ZM1382.85 2260C1384.45 2260 1385.79 2259.69 1386.88 2259.06C1387.98 2258.44 1388.81 2257.63 1389.37 2256.64C1389.93 2255.65 1390.22 2254.61 1390.22 2253.52V2249.84C1390.05 2250.05 1389.67 2250.23 1389.09 2250.4C1388.52 2250.56 1387.87 2250.7 1387.12 2250.83C1386.38 2250.94 1385.66 2251.05 1384.95 2251.14C1384.26 2251.22 1383.7 2251.28 1383.26 2251.34C1382.22 2251.48 1381.24 2251.7 1380.33 2252.01C1379.43 2252.3 1378.71 2252.75 1378.15 2253.35C1377.6 2253.94 1377.33 2254.75 1377.33 2255.77C1377.33 2257.17 1377.85 2258.23 1378.88 2258.94C1379.93 2259.65 1381.25 2260 1382.85 2260ZM1405.61 2228.09V2263H1401.58V2228.09H1405.61Z" fill="black"/>
<rect width="402" height="874" transform="translate(0 269)" fill="white"/>
<rect y="269" width="402" height="83" fill="#070101"/>
<path d="M271 284H73V336H271V284Z" fill="#1E1E1E"/>
<path d="M100.235 336C115.277 336 127.47 324.359 127.47 310C127.47 295.641 115.277 284 100.235 284C85.1936 284 73 295.641 73 310C73 324.359 85.1936 336 100.235 336Z" fill="#231698"/>
<path d="M76.3345 321.659L92.948 301.379" stroke="#26FF00" stroke-width="7"/>
<path d="M94.5259 301.488L112.773 331.908" stroke="#FF0101" stroke-width="7"/>
<path d="M110.999 331.484L115.901 287.284" stroke="#00F271" stroke-width="7"/>
<path d="M157.65 312.096H151.199V308.862H157.65C158.774 308.862 159.682 308.689 160.374 308.342C161.066 307.996 161.571 307.519 161.889 306.912C162.218 306.295 162.383 305.591 162.383 304.8C162.383 304.052 162.218 303.354 161.889 302.704C161.571 302.043 161.066 301.512 160.374 301.111C159.682 300.71 158.774 300.51 157.65 300.51H152.51V320.92H148.237V297.26H157.65C159.568 297.26 161.197 297.585 162.536 298.235C163.886 298.874 164.913 299.762 165.617 300.9C166.32 302.027 166.672 303.316 166.672 304.767C166.672 306.295 166.32 307.606 165.617 308.7C164.913 309.794 163.886 310.634 162.536 311.219C161.197 311.804 159.568 312.096 157.65 312.096ZM169.004 312.324V311.95C169.004 310.682 169.197 309.507 169.583 308.424C169.969 307.33 170.525 306.382 171.251 305.58C171.989 304.767 172.885 304.139 173.941 303.695C175.007 303.24 176.21 303.012 177.549 303.012C178.9 303.012 180.103 303.24 181.158 303.695C182.225 304.139 183.127 304.767 183.864 305.58C184.602 306.382 185.164 307.33 185.55 308.424C185.935 309.507 186.128 310.682 186.128 311.95V312.324C186.128 313.591 185.935 314.767 185.55 315.85C185.164 316.933 184.602 317.881 183.864 318.694C183.127 319.495 182.23 320.124 181.175 320.579C180.119 321.023 178.922 321.245 177.583 321.245C176.233 321.245 175.024 321.023 173.958 320.579C172.902 320.124 172.006 319.495 171.268 318.694C170.53 317.881 169.969 316.933 169.583 315.85C169.197 314.767 169.004 313.591 169.004 312.324ZM173.106 311.95V312.324C173.106 313.115 173.192 313.862 173.362 314.566C173.532 315.27 173.799 315.888 174.162 316.419C174.525 316.95 174.99 317.367 175.557 317.67C176.125 317.973 176.8 318.125 177.583 318.125C178.344 318.125 179.002 317.973 179.558 317.67C180.125 317.367 180.591 316.95 180.954 316.419C181.317 315.888 181.584 315.27 181.754 314.566C181.935 313.862 182.026 313.115 182.026 312.324V311.95C182.026 311.17 181.935 310.433 181.754 309.74C181.584 309.036 181.311 308.413 180.936 307.871C180.573 307.33 180.108 306.907 179.541 306.604C178.985 306.29 178.321 306.132 177.549 306.132C176.778 306.132 176.108 306.29 175.541 306.604C174.984 306.907 174.525 307.33 174.162 307.871C173.799 308.413 173.532 309.036 173.362 309.74C173.192 310.433 173.106 311.17 173.106 311.95ZM193.618 306.717V327.68H189.516V303.337H193.295L193.618 306.717ZM205.619 311.966V312.307C205.619 313.586 205.46 314.772 205.142 315.866C204.835 316.949 204.376 317.897 203.763 318.71C203.162 319.512 202.418 320.135 201.533 320.579C200.648 321.023 199.627 321.245 198.469 321.245C197.323 321.245 196.319 321.045 195.456 320.644C194.605 320.232 193.885 319.652 193.295 318.905C192.705 318.157 192.228 317.28 191.865 316.272C191.513 315.254 191.263 314.138 191.116 312.925V311.609C191.263 310.32 191.513 309.15 191.865 308.099C192.228 307.048 192.705 306.143 193.295 305.385C193.885 304.627 194.605 304.042 195.456 303.63C196.307 303.218 197.3 303.012 198.435 303.012C199.593 303.012 200.62 303.229 201.516 303.662C202.413 304.085 203.167 304.692 203.78 305.482C204.393 306.262 204.853 307.205 205.159 308.31C205.465 309.404 205.619 310.623 205.619 311.966ZM201.516 312.307V311.966C201.516 311.154 201.437 310.401 201.278 309.707C201.119 309.003 200.869 308.386 200.529 307.855C200.188 307.324 199.752 306.912 199.218 306.62C198.696 306.317 198.066 306.165 197.329 306.165C196.602 306.165 195.978 306.284 195.456 306.522C194.934 306.75 194.497 307.07 194.146 307.481C193.794 307.893 193.522 308.375 193.328 308.927C193.136 309.469 192.999 310.06 192.92 310.699V313.851C193.056 314.631 193.289 315.346 193.618 315.996C193.947 316.646 194.412 317.166 195.014 317.556C195.627 317.935 196.41 318.125 197.363 318.125C198.1 318.125 198.73 317.973 199.252 317.67C199.774 317.367 200.2 316.95 200.529 316.419C200.869 315.877 201.119 315.254 201.278 314.55C201.437 313.846 201.516 313.098 201.516 312.307ZM220.121 316.776V303.337H224.24V320.92H220.359L220.121 316.776ZM220.7 313.12L222.079 313.087C222.079 314.268 221.943 315.357 221.67 316.354C221.398 317.34 220.978 318.201 220.411 318.937C219.843 319.663 219.117 320.232 218.232 320.644C217.347 321.045 216.286 321.245 215.049 321.245C214.152 321.245 213.329 321.12 212.58 320.871C211.832 320.622 211.185 320.237 210.64 319.717C210.107 319.197 209.692 318.52 209.397 317.686C209.102 316.852 208.955 315.855 208.955 314.696V303.337H213.057V314.729C213.057 315.368 213.137 315.904 213.295 316.337C213.454 316.76 213.67 317.101 213.942 317.361C214.215 317.621 214.532 317.805 214.895 317.914C215.259 318.022 215.644 318.076 216.053 318.076C217.222 318.076 218.141 317.859 218.811 317.426C219.491 316.982 219.974 316.386 220.258 315.639C220.553 314.891 220.7 314.052 220.7 313.12ZM232.769 295.96V320.92H228.649V295.96H232.769ZM245.314 321.245C243.952 321.245 242.721 321.034 241.62 320.611C240.531 320.178 239.6 319.577 238.828 318.807C238.068 318.038 237.484 317.134 237.075 316.094C236.667 315.054 236.463 313.932 236.463 312.73V312.08C236.463 310.704 236.672 309.458 237.092 308.342C237.512 307.227 238.097 306.273 238.846 305.482C239.595 304.681 240.48 304.069 241.501 303.646C242.522 303.224 243.629 303.012 244.82 303.012C246.136 303.012 247.289 303.224 248.276 303.646C249.263 304.069 250.08 304.665 250.727 305.434C251.385 306.192 251.873 307.097 252.191 308.147C252.52 309.198 252.684 310.357 252.684 311.625V313.299H238.454V310.487H248.633V310.179C248.611 309.475 248.463 308.814 248.191 308.196C247.93 307.579 247.527 307.08 246.982 306.701C246.437 306.322 245.711 306.132 244.803 306.132C244.122 306.132 243.515 306.273 242.982 306.555C242.46 306.826 242.023 307.221 241.671 307.741C241.319 308.261 241.047 308.89 240.854 309.626C240.673 310.352 240.582 311.17 240.582 312.08V312.73C240.582 313.499 240.689 314.214 240.905 314.875C241.132 315.525 241.461 316.094 241.892 316.581C242.324 317.069 242.846 317.453 243.458 317.735C244.071 318.006 244.769 318.141 245.552 318.141C246.54 318.141 247.419 317.952 248.191 317.572C248.962 317.193 249.632 316.657 250.199 315.964L252.361 317.962C251.964 318.515 251.447 319.046 250.812 319.555C250.177 320.053 249.399 320.46 248.48 320.774C247.572 321.088 246.517 321.245 245.314 321.245ZM258.948 303.337L262.455 309.171L266.03 303.337H270.54L264.957 311.966L270.762 320.92H266.251L262.506 314.842L258.761 320.92H254.233L260.021 311.966L254.455 303.337H258.948Z" fill="url(#paint0_linear_0_1)"/>
<rect y="352" width="402" height="84" fill="#D9D9D9"/>
<path d="M90.1364 382.727V406H87.4545V382.727H90.1364ZM95.0483 406V388.545H97.7301V406H95.0483ZM96.4119 385.636C95.8892 385.636 95.4384 385.458 95.0597 385.102C94.6884 384.746 94.5028 384.318 94.5028 383.818C94.5028 383.318 94.6884 382.89 95.0597 382.534C95.4384 382.178 95.8892 382 96.4119 382C96.9347 382 97.3816 382.178 97.7528 382.534C98.1316 382.89 98.321 383.318 98.321 383.818C98.321 384.318 98.1316 384.746 97.7528 385.102C97.3816 385.458 96.9347 385.636 96.4119 385.636ZM105.324 395.5V406H102.642V388.545H105.233V391.273H105.46C105.869 390.386 106.491 389.674 107.324 389.136C108.157 388.591 109.233 388.318 110.551 388.318C111.733 388.318 112.767 388.561 113.653 389.045C114.54 389.523 115.229 390.25 115.722 391.227C116.214 392.197 116.46 393.424 116.46 394.909V406H113.778V395.091C113.778 393.72 113.422 392.652 112.71 391.886C111.998 391.114 111.021 390.727 109.778 390.727C108.922 390.727 108.157 390.913 107.483 391.284C106.816 391.655 106.29 392.197 105.903 392.909C105.517 393.621 105.324 394.485 105.324 395.5ZM123.861 399.636L123.815 396.318H124.361L131.997 388.545H135.315L127.179 396.773H126.952L123.861 399.636ZM121.361 406V382.727H124.043V406H121.361ZM132.452 406L125.634 397.364L127.543 395.5L135.861 406H132.452ZM155.358 388.545V390.818H146.312V388.545H155.358ZM148.949 384.364H151.631V401C151.631 401.758 151.741 402.326 151.96 402.705C152.188 403.076 152.475 403.326 152.824 403.455C153.18 403.576 153.555 403.636 153.949 403.636C154.244 403.636 154.487 403.621 154.676 403.591C154.866 403.553 155.017 403.523 155.131 403.5L155.676 405.909C155.494 405.977 155.241 406.045 154.915 406.114C154.589 406.189 154.176 406.227 153.676 406.227C152.919 406.227 152.176 406.064 151.449 405.739C150.729 405.413 150.131 404.917 149.653 404.25C149.184 403.583 148.949 402.742 148.949 401.727V384.364ZM166.295 406.364C164.72 406.364 163.337 405.989 162.148 405.239C160.966 404.489 160.042 403.439 159.375 402.091C158.716 400.742 158.386 399.167 158.386 397.364C158.386 395.545 158.716 393.958 159.375 392.602C160.042 391.246 160.966 390.193 162.148 389.443C163.337 388.693 164.72 388.318 166.295 388.318C167.871 388.318 169.25 388.693 170.432 389.443C171.621 390.193 172.545 391.246 173.205 392.602C173.871 393.958 174.205 395.545 174.205 397.364C174.205 399.167 173.871 400.742 173.205 402.091C172.545 403.439 171.621 404.489 170.432 405.239C169.25 405.989 167.871 406.364 166.295 406.364ZM166.295 403.955C167.492 403.955 168.477 403.648 169.25 403.034C170.023 402.42 170.595 401.614 170.966 400.614C171.337 399.614 171.523 398.53 171.523 397.364C171.523 396.197 171.337 395.11 170.966 394.102C170.595 393.095 170.023 392.28 169.25 391.659C168.477 391.038 167.492 390.727 166.295 390.727C165.098 390.727 164.114 391.038 163.341 391.659C162.568 392.28 161.996 393.095 161.625 394.102C161.254 395.11 161.068 396.197 161.068 397.364C161.068 398.53 161.254 399.614 161.625 400.614C161.996 401.614 162.568 402.42 163.341 403.034C164.114 403.648 165.098 403.955 166.295 403.955ZM199.662 392.455L197.253 393.136C197.101 392.735 196.878 392.345 196.582 391.966C196.295 391.58 195.901 391.261 195.401 391.011C194.901 390.761 194.26 390.636 193.48 390.636C192.412 390.636 191.522 390.883 190.81 391.375C190.105 391.86 189.753 392.477 189.753 393.227C189.753 393.894 189.995 394.42 190.48 394.807C190.965 395.193 191.723 395.515 192.753 395.773L195.344 396.409C196.904 396.788 198.067 397.367 198.832 398.148C199.598 398.92 199.98 399.917 199.98 401.136C199.98 402.136 199.692 403.03 199.116 403.818C198.548 404.606 197.753 405.227 196.73 405.682C195.707 406.136 194.518 406.364 193.162 406.364C191.382 406.364 189.908 405.977 188.741 405.205C187.575 404.432 186.836 403.303 186.526 401.818L189.071 401.182C189.313 402.121 189.772 402.826 190.446 403.295C191.128 403.765 192.018 404 193.116 404C194.366 404 195.359 403.735 196.094 403.205C196.836 402.667 197.207 402.023 197.207 401.273C197.207 400.667 196.995 400.159 196.571 399.75C196.147 399.333 195.495 399.023 194.616 398.818L191.707 398.136C190.109 397.758 188.935 397.17 188.185 396.375C187.442 395.572 187.071 394.568 187.071 393.364C187.071 392.379 187.348 391.508 187.901 390.75C188.461 389.992 189.223 389.398 190.185 388.966C191.154 388.534 192.253 388.318 193.48 388.318C195.207 388.318 196.563 388.697 197.548 389.455C198.541 390.212 199.245 391.212 199.662 392.455ZM211.108 406.364C209.532 406.364 208.15 405.989 206.96 405.239C205.778 404.489 204.854 403.439 204.188 402.091C203.528 400.742 203.199 399.167 203.199 397.364C203.199 395.545 203.528 393.958 204.188 392.602C204.854 391.246 205.778 390.193 206.96 389.443C208.15 388.693 209.532 388.318 211.108 388.318C212.684 388.318 214.063 388.693 215.244 389.443C216.434 390.193 217.358 391.246 218.017 392.602C218.684 393.958 219.017 395.545 219.017 397.364C219.017 399.167 218.684 400.742 218.017 402.091C217.358 403.439 216.434 404.489 215.244 405.239C214.063 405.989 212.684 406.364 211.108 406.364ZM211.108 403.955C212.305 403.955 213.29 403.648 214.062 403.034C214.835 402.42 215.407 401.614 215.778 400.614C216.15 399.614 216.335 398.53 216.335 397.364C216.335 396.197 216.15 395.11 215.778 394.102C215.407 393.095 214.835 392.28 214.062 391.659C213.29 391.038 212.305 390.727 211.108 390.727C209.911 390.727 208.926 391.038 208.153 391.659C207.381 392.28 206.809 393.095 206.438 394.102C206.066 395.11 205.881 396.197 205.881 397.364C205.881 398.53 206.066 399.614 206.438 400.614C206.809 401.614 207.381 402.42 208.153 403.034C208.926 403.648 209.911 403.955 211.108 403.955ZM230.202 406.364C228.565 406.364 227.156 405.977 225.974 405.205C224.793 404.432 223.884 403.367 223.247 402.011C222.611 400.655 222.293 399.106 222.293 397.364C222.293 395.591 222.618 394.027 223.27 392.67C223.929 391.307 224.846 390.242 226.02 389.477C227.202 388.705 228.58 388.318 230.156 388.318C231.384 388.318 232.49 388.545 233.474 389C234.459 389.455 235.266 390.091 235.895 390.909C236.524 391.727 236.914 392.682 237.065 393.773H234.384C234.179 392.977 233.724 392.273 233.02 391.659C232.323 391.038 231.384 390.727 230.202 390.727C229.156 390.727 228.24 391 227.452 391.545C226.671 392.083 226.062 392.845 225.622 393.83C225.19 394.807 224.974 395.955 224.974 397.273C224.974 398.621 225.187 399.795 225.611 400.795C226.043 401.795 226.649 402.572 227.429 403.125C228.217 403.678 229.141 403.955 230.202 403.955C230.899 403.955 231.531 403.833 232.099 403.591C232.668 403.348 233.149 403 233.543 402.545C233.937 402.091 234.217 401.545 234.384 400.909H237.065C236.914 401.939 236.539 402.867 235.94 403.693C235.349 404.511 234.565 405.163 233.588 405.648C232.618 406.125 231.49 406.364 230.202 406.364ZM240.986 406V388.545H243.668V406H240.986ZM242.349 385.636C241.827 385.636 241.376 385.458 240.997 385.102C240.626 384.746 240.44 384.318 240.44 383.818C240.44 383.318 240.626 382.89 240.997 382.534C241.376 382.178 241.827 382 242.349 382C242.872 382 243.319 382.178 243.69 382.534C244.069 382.89 244.259 383.318 244.259 383.818C244.259 384.318 244.069 384.746 243.69 385.102C243.319 385.458 242.872 385.636 242.349 385.636ZM253.716 406.409C252.61 406.409 251.606 406.201 250.705 405.784C249.803 405.36 249.087 404.75 248.557 403.955C248.027 403.152 247.761 402.182 247.761 401.045C247.761 400.045 247.958 399.235 248.352 398.614C248.746 397.985 249.273 397.492 249.932 397.136C250.591 396.78 251.318 396.515 252.114 396.341C252.917 396.159 253.723 396.015 254.534 395.909C255.595 395.773 256.455 395.67 257.114 395.602C257.78 395.527 258.265 395.402 258.568 395.227C258.879 395.053 259.034 394.75 259.034 394.318V394.227C259.034 393.106 258.727 392.235 258.114 391.614C257.508 390.992 256.587 390.682 255.352 390.682C254.072 390.682 253.068 390.962 252.341 391.523C251.614 392.083 251.102 392.682 250.807 393.318L248.261 392.409C248.716 391.348 249.322 390.523 250.08 389.932C250.845 389.333 251.678 388.917 252.58 388.682C253.489 388.439 254.383 388.318 255.261 388.318C255.822 388.318 256.466 388.386 257.193 388.523C257.928 388.652 258.636 388.92 259.318 389.33C260.008 389.739 260.58 390.356 261.034 391.182C261.489 392.008 261.716 393.114 261.716 394.5V406H259.034V403.636H258.898C258.716 404.015 258.413 404.42 257.989 404.852C257.564 405.284 257 405.652 256.295 405.955C255.591 406.258 254.731 406.409 253.716 406.409ZM254.125 404C255.186 404 256.08 403.792 256.807 403.375C257.542 402.958 258.095 402.42 258.466 401.761C258.845 401.102 259.034 400.409 259.034 399.682V397.227C258.92 397.364 258.67 397.489 258.284 397.602C257.905 397.708 257.466 397.803 256.966 397.886C256.473 397.962 255.992 398.03 255.523 398.091C255.061 398.144 254.686 398.189 254.398 398.227C253.701 398.318 253.049 398.466 252.443 398.67C251.845 398.867 251.36 399.167 250.989 399.568C250.625 399.962 250.443 400.5 250.443 401.182C250.443 402.114 250.788 402.818 251.477 403.295C252.174 403.765 253.057 404 254.125 404ZM269.293 382.727V406H266.611V382.727H269.293ZM286.568 392.455L284.159 393.136C284.008 392.735 283.784 392.345 283.489 391.966C283.201 391.58 282.807 391.261 282.307 391.011C281.807 390.761 281.167 390.636 280.386 390.636C279.318 390.636 278.428 390.883 277.716 391.375C277.011 391.86 276.659 392.477 276.659 393.227C276.659 393.894 276.902 394.42 277.386 394.807C277.871 395.193 278.629 395.515 279.659 395.773L282.25 396.409C283.811 396.788 284.973 397.367 285.739 398.148C286.504 398.92 286.886 399.917 286.886 401.136C286.886 402.136 286.598 403.03 286.023 403.818C285.455 404.606 284.659 405.227 283.636 405.682C282.614 406.136 281.424 406.364 280.068 406.364C278.288 406.364 276.814 405.977 275.648 405.205C274.481 404.432 273.742 403.303 273.432 401.818L275.977 401.182C276.22 402.121 276.678 402.826 277.352 403.295C278.034 403.765 278.924 404 280.023 404C281.273 404 282.265 403.735 283 403.205C283.742 402.667 284.114 402.023 284.114 401.273C284.114 400.667 283.902 400.159 283.477 399.75C283.053 399.333 282.402 399.023 281.523 398.818L278.614 398.136C277.015 397.758 275.841 397.17 275.091 396.375C274.348 395.572 273.977 394.568 273.977 393.364C273.977 392.379 274.254 391.508 274.807 390.75C275.367 389.992 276.129 389.398 277.091 388.966C278.061 388.534 279.159 388.318 280.386 388.318C282.114 388.318 283.47 388.697 284.455 389.455C285.447 390.212 286.152 391.212 286.568 392.455Z" fill="black"/>
<rect x="17" y="452" width="370" height="407" fill="#E0E0E0"/>
<rect x="17" y="892" width="273" height="77" fill="#D9D9D9"/>
<path d="M48.4545 930.364C48.4545 932.818 48.0114 934.939 47.125 936.727C46.2386 938.515 45.0227 939.894 43.4773 940.864C41.9318 941.833 40.1667 942.318 38.1818 942.318C36.197 942.318 34.4318 941.833 32.8864 940.864C31.3409 939.894 30.125 938.515 29.2386 936.727C28.3523 934.939 27.9091 932.818 27.9091 930.364C27.9091 927.909 28.3523 925.788 29.2386 924C30.125 922.212 31.3409 920.833 32.8864 919.864C34.4318 918.894 36.197 918.409 38.1818 918.409C40.1667 918.409 41.9318 918.894 43.4773 919.864C45.0227 920.833 46.2386 922.212 47.125 924C48.0114 925.788 48.4545 927.909 48.4545 930.364ZM45.7273 930.364C45.7273 928.348 45.3902 926.648 44.7159 925.261C44.0492 923.875 43.1439 922.826 42 922.114C40.8636 921.402 39.5909 921.045 38.1818 921.045C36.7727 921.045 35.4962 921.402 34.3523 922.114C33.2159 922.826 32.3106 923.875 31.6364 925.261C30.9697 926.648 30.6364 928.348 30.6364 930.364C30.6364 932.379 30.9697 934.08 31.6364 935.466C32.3106 936.852 33.2159 937.902 34.3523 938.614C35.4962 939.326 36.7727 939.682 38.1818 939.682C39.5909 939.682 40.8636 939.326 42 938.614C43.1439 937.902 44.0492 936.852 44.7159 935.466C45.3902 934.08 45.7273 932.379 45.7273 930.364ZM52.8295 942V924.545H55.4205V927.182H55.6023C55.9205 926.318 56.4962 925.617 57.3295 925.08C58.1629 924.542 59.1023 924.273 60.1477 924.273C60.3447 924.273 60.5909 924.277 60.8864 924.284C61.1818 924.292 61.4053 924.303 61.5568 924.318V927.045C61.4659 927.023 61.2576 926.989 60.9318 926.943C60.6136 926.89 60.2765 926.864 59.9205 926.864C59.072 926.864 58.3144 927.042 57.6477 927.398C56.9886 927.746 56.4659 928.231 56.0795 928.852C55.7008 929.466 55.5114 930.167 55.5114 930.955V942H52.8295ZM71.25 948.909C69.9545 948.909 68.8409 948.742 67.9091 948.409C66.9773 948.083 66.2008 947.652 65.5795 947.114C64.9659 946.583 64.4773 946.015 64.1136 945.409L66.25 943.909C66.4924 944.227 66.7992 944.591 67.1705 945C67.5417 945.417 68.0492 945.777 68.6932 946.08C69.3447 946.39 70.197 946.545 71.25 946.545C72.6591 946.545 73.822 946.205 74.7386 945.523C75.6553 944.841 76.1136 943.773 76.1136 942.318V938.773H75.8864C75.6894 939.091 75.4091 939.485 75.0455 939.955C74.6894 940.417 74.1742 940.83 73.5 941.193C72.8333 941.549 71.9318 941.727 70.7955 941.727C69.3864 941.727 68.1212 941.394 67 940.727C65.8864 940.061 65.0038 939.091 64.3523 937.818C63.7083 936.545 63.3864 935 63.3864 933.182C63.3864 931.394 63.7008 929.837 64.3295 928.511C64.9583 927.178 65.8333 926.148 66.9545 925.42C68.0758 924.686 69.3712 924.318 70.8409 924.318C71.9773 924.318 72.8788 924.508 73.5455 924.886C74.2197 925.258 74.7348 925.682 75.0909 926.159C75.4545 926.629 75.7348 927.015 75.9318 927.318H76.2045V924.545H78.7955V942.5C78.7955 944 78.4545 945.22 77.7727 946.159C77.0985 947.106 76.1894 947.799 75.0455 948.239C73.9091 948.686 72.6439 948.909 71.25 948.909ZM71.1591 939.318C72.2348 939.318 73.1439 939.072 73.8864 938.58C74.6288 938.087 75.1932 937.379 75.5795 936.455C75.9659 935.53 76.1591 934.424 76.1591 933.136C76.1591 931.879 75.9697 930.769 75.5909 929.807C75.2121 928.845 74.6515 928.091 73.9091 927.545C73.1667 927 72.25 926.727 71.1591 926.727C70.0227 926.727 69.0758 927.015 68.3182 927.591C67.5682 928.167 67.0038 928.939 66.625 929.909C66.2538 930.879 66.0682 931.955 66.0682 933.136C66.0682 934.348 66.2576 935.42 66.6364 936.352C67.0227 937.277 67.5909 938.004 68.3409 938.534C69.0985 939.057 70.0379 939.318 71.1591 939.318ZM88.8409 942.409C87.7348 942.409 86.7311 942.201 85.8295 941.784C84.928 941.36 84.2121 940.75 83.6818 939.955C83.1515 939.152 82.8864 938.182 82.8864 937.045C82.8864 936.045 83.0833 935.235 83.4773 934.614C83.8712 933.985 84.3977 933.492 85.0568 933.136C85.7159 932.78 86.4432 932.515 87.2386 932.341C88.0417 932.159 88.8485 932.015 89.6591 931.909C90.7197 931.773 91.5795 931.67 92.2386 931.602C92.9053 931.527 93.3902 931.402 93.6932 931.227C94.0038 931.053 94.1591 930.75 94.1591 930.318V930.227C94.1591 929.106 93.8523 928.235 93.2386 927.614C92.6326 926.992 91.7121 926.682 90.4773 926.682C89.197 926.682 88.1932 926.962 87.4659 927.523C86.7386 928.083 86.2273 928.682 85.9318 929.318L83.3864 928.409C83.8409 927.348 84.447 926.523 85.2045 925.932C85.9697 925.333 86.803 924.917 87.7045 924.682C88.6136 924.439 89.5076 924.318 90.3864 924.318C90.947 924.318 91.5909 924.386 92.3182 924.523C93.053 924.652 93.7614 924.92 94.4432 925.33C95.1326 925.739 95.7045 926.356 96.1591 927.182C96.6136 928.008 96.8409 929.114 96.8409 930.5V942H94.1591V939.636H94.0227C93.8409 940.015 93.5379 940.42 93.1136 940.852C92.6894 941.284 92.125 941.652 91.4205 941.955C90.7159 942.258 89.8561 942.409 88.8409 942.409ZM89.25 940C90.3106 940 91.2045 939.792 91.9318 939.375C92.6667 938.958 93.2197 938.42 93.5909 937.761C93.9697 937.102 94.1591 936.409 94.1591 935.682V933.227C94.0455 933.364 93.7955 933.489 93.4091 933.602C93.0303 933.708 92.5909 933.803 92.0909 933.886C91.5985 933.962 91.1174 934.03 90.6477 934.091C90.1856 934.144 89.8106 934.189 89.5227 934.227C88.8258 934.318 88.1742 934.466 87.5682 934.67C86.9697 934.867 86.4848 935.167 86.1136 935.568C85.75 935.962 85.5682 936.5 85.5682 937.182C85.5682 938.114 85.9129 938.818 86.6023 939.295C87.2992 939.765 88.1818 940 89.25 940ZM104.418 931.5V942H101.736V924.545H104.327V927.273H104.554C104.963 926.386 105.584 925.674 106.418 925.136C107.251 924.591 108.327 924.318 109.645 924.318C110.827 924.318 111.861 924.561 112.747 925.045C113.634 925.523 114.323 926.25 114.815 927.227C115.308 928.197 115.554 929.424 115.554 930.909V942H112.872V931.091C112.872 929.72 112.516 928.652 111.804 927.886C111.092 927.114 110.115 926.727 108.872 926.727C108.016 926.727 107.251 926.913 106.577 927.284C105.91 927.655 105.384 928.197 104.997 928.909C104.611 929.621 104.418 930.485 104.418 931.5ZM120.455 942V924.545H123.136V942H120.455ZM121.818 921.636C121.295 921.636 120.845 921.458 120.466 921.102C120.095 920.746 119.909 920.318 119.909 919.818C119.909 919.318 120.095 918.89 120.466 918.534C120.845 918.178 121.295 918 121.818 918C122.341 918 122.788 918.178 123.159 918.534C123.538 918.89 123.727 919.318 123.727 919.818C123.727 920.318 123.538 920.746 123.159 921.102C122.788 921.458 122.341 921.636 121.818 921.636ZM140.412 928.455L138.003 929.136C137.851 928.735 137.628 928.345 137.332 927.966C137.045 927.58 136.651 927.261 136.151 927.011C135.651 926.761 135.01 926.636 134.23 926.636C133.162 926.636 132.272 926.883 131.56 927.375C130.855 927.86 130.503 928.477 130.503 929.227C130.503 929.894 130.745 930.42 131.23 930.807C131.715 931.193 132.473 931.515 133.503 931.773L136.094 932.409C137.654 932.788 138.817 933.367 139.582 934.148C140.348 934.92 140.73 935.917 140.73 937.136C140.73 938.136 140.442 939.03 139.866 939.818C139.298 940.606 138.503 941.227 137.48 941.682C136.457 942.136 135.268 942.364 133.912 942.364C132.132 942.364 130.658 941.977 129.491 941.205C128.325 940.432 127.586 939.303 127.276 937.818L129.821 937.182C130.063 938.121 130.522 938.826 131.196 939.295C131.878 939.765 132.768 940 133.866 940C135.116 940 136.109 939.735 136.844 939.205C137.586 938.667 137.957 938.023 137.957 937.273C137.957 936.667 137.745 936.159 137.321 935.75C136.897 935.333 136.245 935.023 135.366 934.818L132.457 934.136C130.859 933.758 129.685 933.17 128.935 932.375C128.192 931.572 127.821 930.568 127.821 929.364C127.821 928.379 128.098 927.508 128.651 926.75C129.211 925.992 129.973 925.398 130.935 924.966C131.904 924.534 133.003 924.318 134.23 924.318C135.957 924.318 137.313 924.697 138.298 925.455C139.291 926.212 139.995 927.212 140.412 928.455ZM144.767 942V924.545H147.358V927.273H147.585C147.949 926.341 148.536 925.617 149.347 925.102C150.157 924.58 151.131 924.318 152.267 924.318C153.419 924.318 154.377 924.58 155.142 925.102C155.915 925.617 156.517 926.341 156.949 927.273H157.131C157.578 926.371 158.248 925.655 159.142 925.125C160.036 924.587 161.108 924.318 162.358 924.318C163.919 924.318 165.195 924.807 166.188 925.784C167.18 926.754 167.676 928.265 167.676 930.318V942H164.994V930.318C164.994 929.03 164.642 928.11 163.938 927.557C163.233 927.004 162.403 926.727 161.449 926.727C160.222 926.727 159.271 927.098 158.597 927.841C157.922 928.576 157.585 929.508 157.585 930.636V942H154.858V930.045C154.858 929.053 154.536 928.254 153.892 927.648C153.248 927.034 152.419 926.727 151.403 926.727C150.706 926.727 150.055 926.913 149.449 927.284C148.85 927.655 148.366 928.17 147.994 928.83C147.631 929.481 147.449 930.235 147.449 931.091V942H144.767ZM184.943 928.455L182.534 929.136C182.383 928.735 182.159 928.345 181.864 927.966C181.576 927.58 181.182 927.261 180.682 927.011C180.182 926.761 179.542 926.636 178.761 926.636C177.693 926.636 176.803 926.883 176.091 927.375C175.386 927.86 175.034 928.477 175.034 929.227C175.034 929.894 175.277 930.42 175.761 930.807C176.246 931.193 177.004 931.515 178.034 931.773L180.625 932.409C182.186 932.788 183.348 933.367 184.114 934.148C184.879 934.92 185.261 935.917 185.261 937.136C185.261 938.136 184.973 939.03 184.398 939.818C183.83 940.606 183.034 941.227 182.011 941.682C180.989 942.136 179.799 942.364 178.443 942.364C176.663 942.364 175.189 941.977 174.023 941.205C172.856 940.432 172.117 939.303 171.807 937.818L174.352 937.182C174.595 938.121 175.053 938.826 175.727 939.295C176.409 939.765 177.299 940 178.398 940C179.648 940 180.64 939.735 181.375 939.205C182.117 938.667 182.489 938.023 182.489 937.273C182.489 936.667 182.277 936.159 181.852 935.75C181.428 935.333 180.777 935.023 179.898 934.818L176.989 934.136C175.39 933.758 174.216 933.17 173.466 932.375C172.723 931.572 172.352 930.568 172.352 929.364C172.352 928.379 172.629 927.508 173.182 926.75C173.742 925.992 174.504 925.398 175.466 924.966C176.436 924.534 177.534 924.318 178.761 924.318C180.489 924.318 181.845 924.697 182.83 925.455C183.822 926.212 184.527 927.212 184.943 928.455Z" fill="#6A6A6A"/>
<rect x="313" y="895" width="67" height="74" fill="#00FF44"/>
<path d="M344.273 940.409V925.409H346.818V940.409H344.273ZM338.045 934.182V931.636H353.045V934.182H338.045Z" fill="black"/>
<rect x="1" y="982" width="256" height="70" fill="white"/>
<path d="M37.7159 1033H34.0227L44.7045 1003.91H48.3409L59.0227 1033H55.3295L46.6364 1008.51H46.4091L37.7159 1033ZM39.0795 1021.64H53.9659V1024.76H39.0795V1021.64ZM66.4517 1003.91V1033H63.0994V1003.91H66.4517ZM72.5916 1033V1011.18H75.9439V1033H72.5916ZM74.2962 1007.55C73.6428 1007.55 73.0793 1007.32 72.6058 1006.88C72.1418 1006.43 71.9098 1005.9 71.9098 1005.27C71.9098 1004.65 72.1418 1004.11 72.6058 1003.67C73.0793 1003.22 73.6428 1003 74.2962 1003C74.9496 1003 75.5083 1003.22 75.9723 1003.67C76.4458 1004.11 76.6825 1004.65 76.6825 1005.27C76.6825 1005.9 76.4458 1006.43 75.9723 1006.88C75.5083 1007.32 74.9496 1007.55 74.2962 1007.55ZM90.9474 1033.45C88.902 1033.45 87.1406 1032.97 85.6634 1032.01C84.1861 1031.04 83.0497 1029.71 82.2543 1028.01C81.4588 1026.32 81.0611 1024.38 81.0611 1022.2C81.0611 1019.99 81.4683 1018.03 82.2827 1016.34C83.1065 1014.63 84.2524 1013.3 85.7202 1012.35C87.1974 1011.38 88.9209 1010.9 90.8906 1010.9C92.4247 1010.9 93.8073 1011.18 95.0384 1011.75C96.2694 1012.32 97.2779 1013.11 98.0639 1014.14C98.8499 1015.16 99.3376 1016.35 99.527 1017.72H96.1747C95.919 1016.72 95.3509 1015.84 94.4702 1015.07C93.599 1014.3 92.4247 1013.91 90.9474 1013.91C89.6406 1013.91 88.4948 1014.25 87.5099 1014.93C86.5346 1015.6 85.7723 1016.56 85.223 1017.79C84.6832 1019.01 84.4134 1020.44 84.4134 1022.09C84.4134 1023.78 84.6785 1025.24 85.2088 1026.49C85.7486 1027.74 86.5062 1028.71 87.4815 1029.41C88.4664 1030.1 89.6217 1030.44 90.9474 1030.44C91.8187 1030.44 92.6094 1030.29 93.3196 1029.99C94.0298 1029.69 94.6312 1029.25 95.1236 1028.68C95.616 1028.11 95.9664 1027.43 96.1747 1026.64H99.527C99.3376 1027.92 98.8688 1029.08 98.1207 1030.12C97.3821 1031.14 96.402 1031.95 95.1804 1032.56C93.9683 1033.16 92.5573 1033.45 90.9474 1033.45ZM113.575 1033.45C111.473 1033.45 109.66 1032.99 108.135 1032.06C106.62 1031.12 105.45 1029.82 104.626 1028.14C103.812 1026.46 103.405 1024.5 103.405 1022.26C103.405 1020.03 103.812 1018.06 104.626 1016.35C105.45 1014.64 106.596 1013.3 108.064 1012.35C109.541 1011.38 111.265 1010.9 113.234 1010.9C114.371 1010.9 115.493 1011.09 116.601 1011.47C117.709 1011.84 118.717 1012.46 119.626 1013.31C120.536 1014.16 121.26 1015.27 121.8 1016.66C122.339 1018.06 122.609 1019.77 122.609 1021.81V1023.23H105.791V1020.33H119.2C119.2 1019.1 118.954 1018 118.462 1017.03C117.979 1016.07 117.287 1015.31 116.388 1014.75C115.498 1014.19 114.446 1013.91 113.234 1013.91C111.899 1013.91 110.744 1014.24 109.768 1014.9C108.803 1015.56 108.059 1016.41 107.538 1017.46C107.018 1018.51 106.757 1019.64 106.757 1020.84V1022.77C106.757 1024.42 107.041 1025.82 107.609 1026.96C108.187 1028.1 108.987 1028.97 110.01 1029.56C111.033 1030.15 112.221 1030.44 113.575 1030.44C114.456 1030.44 115.251 1030.32 115.962 1030.07C116.681 1029.82 117.302 1029.44 117.822 1028.94C118.343 1028.43 118.746 1027.79 119.03 1027.03L122.268 1027.94C121.928 1029.04 121.355 1030.01 120.55 1030.84C119.745 1031.66 118.75 1032.31 117.567 1032.77C116.383 1033.23 115.053 1033.45 113.575 1033.45Z" fill="#070000"/>
<rect x="283" y="982" width="91" height="70" fill="#EEFF00"/>
<defs>
<linearGradient id="paint0_linear_0_1" x1="145.718" y1="309.48" x2="271.272" y2="309.48" gradientUnits="userSpaceOnUse">
<stop stop-color="#2AFB00"/>
<stop offset="1" stop-color="#FF0000"/>
</linearGradient>
</defs>
</svg>
