<svg width="576" height="191" viewBox="0 0 576 191" fill="none" xmlns="http://www.w3.org/2000/svg">
<rect width="576" height="191" fill="#1E1E1E"/>
<circle cx="160" cy="96" r="75" fill="#5151D7"/>
<line x1="100.757" y1="137.683" x2="126.757" y2="73.6827" stroke="#1EFF00" stroke-width="7"/>
<line x1="130.166" y1="74.508" x2="171.166" y2="161.508" stroke="#E60000" stroke-width="7"/>
<line x1="168.628" y1="165.06" x2="202.628" y2="43.0604" stroke="#04FF00" stroke-width="7"/>
<path d="M255.636 124V77.4545H271.364C275.015 77.4545 278 78.1136 280.318 79.4318C282.652 80.7348 284.379 82.5 285.5 84.7273C286.621 86.9545 287.182 89.4394 287.182 92.1818C287.182 94.9242 286.621 97.4167 285.5 99.6591C284.394 101.902 282.682 103.689 280.364 105.023C278.045 106.341 275.076 107 271.455 107H260.182V102H271.273C273.773 102 275.78 101.568 277.295 100.705C278.811 99.8409 279.909 98.6742 280.591 97.2045C281.288 95.7197 281.636 94.0455 281.636 92.1818C281.636 90.3182 281.288 88.6515 280.591 87.1818C279.909 85.7121 278.803 84.5606 277.273 83.7273C275.742 82.8788 273.712 82.4545 271.182 82.4545H261.273V124H255.636ZM309.341 124.727C306.189 124.727 303.424 123.977 301.045 122.477C298.682 120.977 296.833 118.879 295.5 116.182C294.182 113.485 293.523 110.333 293.523 106.727C293.523 103.091 294.182 99.9167 295.5 97.2045C296.833 94.4924 298.682 92.3864 301.045 90.8864C303.424 89.3864 306.189 88.6364 309.341 88.6364C312.492 88.6364 315.25 89.3864 317.614 90.8864C319.992 92.3864 321.841 94.4924 323.159 97.2045C324.492 99.9167 325.159 103.091 325.159 106.727C325.159 110.333 324.492 113.485 323.159 116.182C321.841 118.879 319.992 120.977 317.614 122.477C315.25 123.977 312.492 124.727 309.341 124.727ZM309.341 119.909C311.735 119.909 313.705 119.295 315.25 118.068C316.795 116.841 317.939 115.227 318.682 113.227C319.424 111.227 319.795 109.061 319.795 106.727C319.795 104.394 319.424 102.22 318.682 100.205C317.939 98.1894 316.795 96.5606 315.25 95.3182C313.705 94.0758 311.735 93.4545 309.341 93.4545C306.947 93.4545 304.977 94.0758 303.432 95.3182C301.886 96.5606 300.742 98.1894 300 100.205C299.258 102.22 298.886 104.394 298.886 106.727C298.886 109.061 299.258 111.227 300 113.227C300.742 115.227 301.886 116.841 303.432 118.068C304.977 119.295 306.947 119.909 309.341 119.909ZM333.347 137.091V89.0909H338.528V94.6364H339.165C339.559 94.0303 340.104 93.2576 340.801 92.3182C341.513 91.3636 342.528 90.5152 343.847 89.7727C345.18 89.0152 346.983 88.6364 349.256 88.6364C352.195 88.6364 354.786 89.3712 357.028 90.8409C359.271 92.3106 361.021 94.3939 362.278 97.0909C363.536 99.7879 364.165 102.97 364.165 106.636C364.165 110.333 363.536 113.538 362.278 116.25C361.021 118.947 359.278 121.038 357.051 122.523C354.824 123.992 352.256 124.727 349.347 124.727C347.104 124.727 345.309 124.356 343.96 123.614C342.612 122.856 341.574 122 340.847 121.045C340.119 120.076 339.559 119.273 339.165 118.636H338.71V137.091H333.347ZM338.619 106.545C338.619 109.182 339.006 111.508 339.778 113.523C340.551 115.523 341.68 117.091 343.165 118.227C344.65 119.348 346.468 119.909 348.619 119.909C350.862 119.909 352.733 119.318 354.233 118.136C355.748 116.939 356.884 115.333 357.642 113.318C358.415 111.288 358.801 109.03 358.801 106.545C358.801 104.091 358.422 101.879 357.665 99.9091C356.922 97.9242 355.794 96.3561 354.278 95.2045C352.778 94.0379 350.892 93.4545 348.619 93.4545C346.438 93.4545 344.604 94.0076 343.119 95.1136C341.634 96.2045 340.513 97.7348 339.756 99.7045C338.998 101.659 338.619 103.939 338.619 106.545ZM394.347 109.727V89.0909H399.71V124H394.347V118.091H393.983C393.165 119.864 391.892 121.371 390.165 122.614C388.438 123.841 386.256 124.455 383.619 124.455C381.438 124.455 379.498 123.977 377.801 123.023C376.104 122.053 374.771 120.598 373.801 118.659C372.831 116.705 372.347 114.242 372.347 111.273V89.0909H377.71V110.909C377.71 113.455 378.422 115.485 379.847 117C381.286 118.515 383.119 119.273 385.347 119.273C386.68 119.273 388.036 118.932 389.415 118.25C390.809 117.568 391.975 116.523 392.915 115.114C393.869 113.705 394.347 111.909 394.347 109.727ZM414.898 77.4545V124H409.534V77.4545H414.898ZM439.358 124.727C435.994 124.727 433.093 123.985 430.653 122.5C428.229 121 426.358 118.909 425.04 116.227C423.737 113.53 423.085 110.394 423.085 106.818C423.085 103.242 423.737 100.091 425.04 97.3636C426.358 94.6212 428.191 92.4848 430.54 90.9545C432.903 89.4091 435.661 88.6364 438.812 88.6364C440.631 88.6364 442.426 88.9394 444.199 89.5455C445.972 90.1515 447.585 91.1364 449.04 92.5C450.494 93.8485 451.653 95.6364 452.517 97.8636C453.381 100.091 453.812 102.833 453.812 106.091V108.364H426.903V103.727H448.358C448.358 101.758 447.964 100 447.176 98.4545C446.403 96.9091 445.297 95.6894 443.858 94.7955C442.434 93.9015 440.752 93.4545 438.812 93.4545C436.676 93.4545 434.828 93.9848 433.267 95.0455C431.722 96.0909 430.532 97.4545 429.699 99.1364C428.866 100.818 428.449 102.621 428.449 104.545V107.636C428.449 110.273 428.903 112.508 429.812 114.341C430.737 116.159 432.017 117.545 433.653 118.5C435.29 119.439 437.191 119.909 439.358 119.909C440.767 119.909 442.04 119.712 443.176 119.318C444.328 118.909 445.32 118.303 446.153 117.5C446.987 116.682 447.631 115.667 448.085 114.455L453.267 115.909C452.722 117.667 451.805 119.212 450.517 120.545C449.229 121.864 447.638 122.894 445.744 123.636C443.85 124.364 441.722 124.727 439.358 124.727ZM465.034 89.0909L473.398 103.364L481.761 89.0909H487.943L476.67 106.545L487.943 124H481.761L473.398 110.455L465.034 124H458.852L469.943 106.545L458.852 89.0909H465.034Z" fill="url(#paint0_linear_0_1)"/>
<defs>
<linearGradient id="paint0_linear_0_1" x1="250" y1="100.5" x2="491" y2="100.5" gradientUnits="userSpaceOnUse">
<stop stop-color="#FF0000"/>
<stop offset="1" stop-color="#00FF09"/>
</linearGradient>
</defs>
</svg>
